0
SECTION
2
HEADER
9
$ACADVER
1
AC1009
0
ENDSEC
0
SECTION
2
TABLES
0
TABLE
2
VPORT
70
1
0
VPORT
2
ACTIVE
70
0
10
0.0
20
0.0
11
0.0
21
0.0
12
0.0
22
0.0
13
0.0
23
0.0
14
0.0
24
0.0
15
0.0
25
0.0
16
0.0
26
0.0
36
0.0
17
0.0
27
0.0
37
0.0
40
0.0
41
0.0
42
0.0
43
0.0
44
0.0
50
0.0
51
0.0
71
0
72
1000
73
1
74
3
75
0
76
0
77
0
78
0
0
ENDTAB
0
ENDSEC
0
SECTION
2
ENTITIES
0
LINE
8
hole
62
5
39
2
10
76.819990
20
78.427777
11
76.819990
21
69.060312
0
LINE
8
hole
62
5
39
2
10
76.819990
20
69.060312
11
70.805330
21
78.427777
0
LINE
8
hole
62
5
39
2
10
70.805330
20
78.427777
11
66.904388
21
84.503248
0
LINE
8
hole
62
5
39
2
10
66.904388
20
84.503248
11
72.919048
21
84.503248
0
LINE
8
hole
62
5
39
2
10
72.919048
20
84.503248
11
76.819990
21
84.503248
0
LINE
8
hole
62
5
39
2
10
76.819990
20
84.503248
11
76.819990
21
78.427777
0
LINE
8
hole
62
5
39
2
10
27.583228
20
69.060313
11
27.583228
21
75.135783
0
LINE
8
hole
62
5
39
2
10
27.583228
20
75.135783
11
27.583228
21
84.503248
0
LINE
8
hole
62
5
39
2
10
27.583228
20
84.503248
11
33.597898
21
84.503248
0
LINE
8
hole
62
5
39
2
10
33.597898
20
84.503248
11
37.498841
21
84.503248
0
LINE
8
hole
62
5
39
2
10
37.498841
20
84.503248
11
31.484171
21
75.135783
0
LINE
8
hole
62
5
39
2
10
31.484171
20
75.135783
11
27.583228
21
69.060313
0
LINE
8
hole
62
5
39
2
10
60.382637
20
142.089000
11
56.637164
21
142.089001
0
LINE
8
hole
62
5
39
2
10
56.637164
20
142.089001
11
54.207958
21
142.089000
0
LINE
8
hole
62
5
39
2
10
54.207958
20
142.089000
11
54.207958
21
148.186854
0
LINE
8
hole
62
5
39
2
10
54.207958
20
148.186854
11
54.207957
21
157.588830
0
LINE
8
hole
62
5
39
2
10
54.207957
20
157.588830
11
74.492554
21
157.588829
0
LINE
8
hole
62
5
39
2
10
74.492554
20
157.588829
11
87.648564
21
157.588829
0
LINE
8
hole
62
5
39
2
10
87.648564
20
157.588829
11
87.648564
21
151.490976
0
LINE
8
hole
62
5
39
2
10
87.648564
20
151.490976
11
87.648564
21
142.089000
0
LINE
8
hole
62
5
39
2
10
87.648564
20
142.089000
11
81.080106
21
142.089000
0
LINE
8
hole
62
5
39
2
10
81.080106
20
142.089000
11
76.819990
21
142.089000
0
LINE
8
hole
62
5
39
2
10
76.819990
20
142.089000
11
70.805322
21
142.089000
0
LINE
8
hole
62
5
39
2
10
70.805322
20
142.089000
11
66.904380
21
142.089000
0
LINE
8
hole
62
5
39
2
10
66.904380
20
142.089000
11
65.486965
21
142.089000
0
LINE
8
hole
62
5
39
2
10
65.486965
20
142.089000
11
64.567670
21
142.089001
0
LINE
8
hole
62
5
39
2
10
64.567670
20
142.089001
11
62.029089
21
142.089000
0
LINE
8
hole
62
5
39
2
10
62.029089
20
142.089000
11
60.382637
21
142.089000
0
LINE
8
hole
62
5
39
2
10
27.583228
20
142.089000
11
21.014769
21
142.089000
0
LINE
8
hole
62
5
39
2
10
21.014769
20
142.089000
11
16.754654
21
142.089000
0
LINE
8
hole
62
5
39
2
10
16.754654
20
142.089000
11
16.754654
21
148.186854
0
LINE
8
hole
62
5
39
2
10
16.754654
20
148.186854
11
16.754654
21
157.588830
0
LINE
8
hole
62
5
39
2
10
16.754654
20
157.588830
11
37.039250
21
157.588829
0
LINE
8
hole
62
5
39
2
10
37.039250
20
157.588829
11
50.195261
21
157.588830
0
LINE
8
hole
62
5
39
2
10
50.195261
20
157.588830
11
50.195261
21
151.490976
0
LINE
8
hole
62
5
39
2
10
50.195261
20
151.490976
11
50.195261
21
142.089001
0
LINE
8
hole
62
5
39
2
10
50.195261
20
142.089001
11
46.449788
21
142.089000
0
LINE
8
hole
62
5
39
2
10
46.449788
20
142.089000
11
44.020581
21
142.089001
0
LINE
8
hole
62
5
39
2
10
44.020581
20
142.089001
11
41.482000
21
142.089000
0
LINE
8
hole
62
5
39
2
10
41.482000
20
142.089000
11
39.835550
21
142.089001
0
LINE
8
hole
62
5
39
2
10
39.835550
20
142.089001
11
38.418135
21
142.089000
0
LINE
8
hole
62
5
39
2
10
38.418135
20
142.089000
11
37.498841
21
142.089000
0
LINE
8
hole
62
5
39
2
10
37.498841
20
142.089000
11
31.484171
21
142.089001
0
LINE
8
hole
62
5
39
2
10
31.484171
20
142.089001
11
27.583228
21
142.089000
0
LINE
8
hole
62
5
39
2
10
44.020581
20
99.238411
11
40.447909
21
99.238412
0
LINE
8
hole
62
5
39
2
10
40.447909
20
99.238412
11
39.835550
21
99.238411
0
LINE
8
hole
62
5
39
2
10
39.835550
20
99.238411
11
39.835550
21
122.806175
0
LINE
8
hole
62
5
39
2
10
39.835550
20
122.806175
11
39.835550
21
126.845711
0
LINE
8
hole
62
5
39
2
10
39.835550
20
126.845711
11
43.408221
21
126.845711
0
LINE
8
hole
62
5
39
2
10
43.408221
20
126.845711
11
44.020580
21
126.845712
0
LINE
8
hole
62
5
39
2
10
44.020580
20
126.845712
11
49.291774
21
126.845712
0
LINE
8
hole
62
5
39
2
10
49.291774
20
126.845712
11
50.195261
21
126.845712
0
LINE
8
hole
62
5
39
2
10
50.195261
20
126.845712
11
53.620815
21
126.845712
0
LINE
8
hole
62
5
39
2
10
53.620815
20
126.845712
11
54.207958
21
126.845711
0
LINE
8
hole
62
5
39
2
10
54.207958
20
126.845711
11
59.479150
21
126.845712
0
LINE
8
hole
62
5
39
2
10
59.479150
20
126.845712
11
60.382638
21
126.845711
0
LINE
8
hole
62
5
39
2
10
60.382638
20
126.845711
11
63.955310
21
126.845711
0
LINE
8
hole
62
5
39
2
10
63.955310
20
126.845711
11
64.567670
21
126.845711
0
LINE
8
hole
62
5
39
2
10
64.567670
20
126.845711
11
64.567670
21
103.277948
0
LINE
8
hole
62
5
39
2
10
64.567670
20
103.277948
11
64.567670
21
99.238411
0
LINE
8
hole
62
5
39
2
10
64.567670
20
99.238411
11
60.994997
21
99.238412
0
LINE
8
hole
62
5
39
2
10
60.994997
20
99.238412
11
60.382638
21
99.238412
0
LINE
8
hole
62
5
39
2
10
60.382638
20
99.238412
11
55.111445
21
99.238412
0
LINE
8
hole
62
5
39
2
10
55.111445
20
99.238412
11
54.207958
21
99.238412
0
LINE
8
hole
62
5
39
2
10
54.207958
20
99.238412
11
50.782416
21
99.238411
0
LINE
8
hole
62
5
39
2
10
50.782416
20
99.238411
11
50.195275
21
99.238411
0
LINE
8
hole
62
5
39
2
10
50.195275
20
99.238411
11
44.924070
21
99.238412
0
LINE
8
hole
62
5
39
2
10
44.924070
20
99.238412
11
44.020581
21
99.238411
0
LINE
8
boundary
62
5
39
2
10
11.787500
20
40.905122
11
11.787500
21
11.787500
0
LINE
8
boundary
62
5
39
2
10
11.787500
20
11.787500
11
14.800505
21
11.787500
0
LINE
8
boundary
62
5
39
2
10
14.800505
20
11.787500
11
16.754654
21
11.787500
0
LINE
8
boundary
62
5
39
2
10
16.754654
20
11.787500
11
23.323113
21
11.787500
0
LINE
8
boundary
62
5
39
2
10
23.323113
20
11.787500
11
27.583228
21
11.787500
0
LINE
8
boundary
62
5
39
2
10
27.583228
20
11.787500
11
27.583228
21
30.672360
0
LINE
8
boundary
62
5
39
2
10
27.583228
20
30.672360
11
27.583228
21
59.789981
0
LINE
8
boundary
62
5
39
2
10
27.583228
20
59.789981
11
37.553892
21
74.780697
0
LINE
8
boundary
62
5
39
2
10
37.553892
20
74.780697
11
44.020581
21
84.503248
0
LINE
8
boundary
62
5
39
2
10
44.020581
20
84.503248
11
47.766062
21
84.503248
0
LINE
8
boundary
62
5
39
2
10
47.766062
20
84.503248
11
50.195269
21
84.503248
0
LINE
8
boundary
62
5
39
2
10
50.195269
20
84.503248
11
52.629306
21
84.503248
0
LINE
8
boundary
62
5
39
2
10
52.629306
20
84.503248
11
54.207958
21
84.503248
0
LINE
8
boundary
62
5
39
2
10
54.207958
20
84.503248
11
57.953439
21
84.503248
0
LINE
8
boundary
62
5
39
2
10
57.953439
20
84.503248
11
60.382645
21
84.503248
0
LINE
8
boundary
62
5
39
2
10
60.382645
20
84.503248
11
70.353302
21
69.512536
0
LINE
8
boundary
62
5
39
2
10
70.353302
20
69.512536
11
76.819990
21
59.789985
0
LINE
8
boundary
62
5
39
2
10
76.819990
20
59.789985
11
76.819991
21
40.905125
0
LINE
8
boundary
62
5
39
2
10
76.819991
20
40.905125
11
76.819991
21
11.787500
0
LINE
8
boundary
62
5
39
2
10
76.819991
20
11.787500
11
83.388449
21
11.787500
0
LINE
8
boundary
62
5
39
2
10
83.388449
20
11.787500
11
87.648564
21
11.787500
0
LINE
8
boundary
62
5
39
2
10
87.648564
20
11.787500
11
90.661574
21
11.787500
0
LINE
8
boundary
62
5
39
2
10
90.661574
20
11.787500
11
92.615727
21
11.787500
0
LINE
8
boundary
62
5
39
2
10
92.615727
20
11.787500
11
92.615727
21
30.672360
0
LINE
8
boundary
62
5
39
2
10
92.615727
20
30.672360
11
92.615727
21
59.789985
0
LINE
8
boundary
62
5
39
2
10
92.615727
20
59.789985
11
92.615727
21
61.613523
0
LINE
8
boundary
62
5
39
2
10
92.615727
20
61.613523
11
92.615727
21
64.425141
0
LINE
8
boundary
62
5
39
2
10
92.615727
20
64.425141
11
92.615727
21
66.248683
0
LINE
8
boundary
62
5
39
2
10
92.615727
20
66.248683
11
92.615727
21
69.060312
0
LINE
8
boundary
62
5
39
2
10
92.615727
20
69.060312
11
92.615727
21
75.135783
0
LINE
8
boundary
62
5
39
2
10
92.615727
20
75.135783
11
92.615727
21
84.503248
0
LINE
8
boundary
62
5
39
2
10
92.615727
20
84.503248
11
92.615727
21
90.300271
0
LINE
8
boundary
62
5
39
2
10
92.615727
20
90.300271
11
92.615727
21
99.238412
0
LINE
8
boundary
62
5
39
2
10
92.615727
20
99.238412
11
92.615727
21
110.099516
0
LINE
8
boundary
62
5
39
2
10
92.615727
20
110.099516
11
92.615727
21
126.845712
0
LINE
8
boundary
62
5
39
2
10
92.615727
20
126.845712
11
92.615727
21
132.842639
0
LINE
8
boundary
62
5
39
2
10
92.615727
20
132.842639
11
92.615727
21
142.089000
0
LINE
8
boundary
62
5
39
2
10
92.615727
20
142.089000
11
92.615727
21
148.186854
0
LINE
8
boundary
62
5
39
2
10
92.615727
20
148.186854
11
92.615727
21
157.588830
0
LINE
8
boundary
62
5
39
2
10
92.615727
20
157.588830
11
92.615727
21
158.509030
0
LINE
8
boundary
62
5
39
2
10
92.615727
20
158.509030
11
92.615727
21
159.927840
0
LINE
8
boundary
62
5
39
2
10
92.615727
20
159.927840
11
92.615727
21
160.659459
0
LINE
8
boundary
62
5
39
2
10
92.615727
20
160.659459
11
92.615727
21
161.787507
0
LINE
8
boundary
62
5
39
2
10
92.615727
20
161.787507
11
89.602717
21
161.787507
0
LINE
8
boundary
62
5
39
2
10
89.602717
20
161.787507
11
87.648564
21
161.787507
0
LINE
8
boundary
62
5
39
2
10
87.648564
20
161.787507
11
87.648564
21
161.055888
0
LINE
8
boundary
62
5
39
2
10
87.648564
20
161.055888
11
87.648564
21
159.927840
0
LINE
8
boundary
62
5
39
2
10
87.648564
20
159.927840
11
67.363968
21
159.927840
0
LINE
8
boundary
62
5
39
2
10
67.363968
20
159.927840
11
54.207958
21
159.927840
0
LINE
8
boundary
62
5
39
2
10
54.207958
20
159.927840
11
54.207958
21
160.659460
0
LINE
8
boundary
62
5
39
2
10
54.207958
20
160.659460
11
54.207958
21
161.787507
0
LINE
8
boundary
62
5
39
2
10
54.207958
20
161.787507
11
51.773913
21
161.787507
0
LINE
8
boundary
62
5
39
2
10
51.773913
20
161.787507
11
50.195261
21
161.787507
0
LINE
8
boundary
62
5
39
2
10
50.195261
20
161.787507
11
50.195261
21
161.055888
0
LINE
8
boundary
62
5
39
2
10
50.195261
20
161.055888
11
50.195261
21
159.927840
0
LINE
8
boundary
62
5
39
2
10
50.195261
20
159.927840
11
29.910665
21
159.927840
0
LINE
8
boundary
62
5
39
2
10
29.910665
20
159.927840
11
16.754654
21
159.927840
0
LINE
8
boundary
62
5
39
2
10
16.754654
20
159.927840
11
16.754654
21
160.659460
0
LINE
8
boundary
62
5
39
2
10
16.754654
20
160.659460
11
16.754654
21
161.787508
0
LINE
8
boundary
62
5
39
2
10
16.754654
20
161.787508
11
13.741649
21
161.787507
0
LINE
8
boundary
62
5
39
2
10
13.741649
20
161.787507
11
11.787500
21
161.787507
0
LINE
8
boundary
62
5
39
2
10
11.787500
20
161.787507
11
11.787500
21
161.055888
0
LINE
8
boundary
62
5
39
2
10
11.787500
20
161.055888
11
11.787500
21
159.927840
0
LINE
8
boundary
62
5
39
2
10
11.787500
20
159.927840
11
11.787500
21
159.007640
0
LINE
8
boundary
62
5
39
2
10
11.787500
20
159.007640
11
11.787500
21
157.588829
0
LINE
8
boundary
62
5
39
2
10
11.787500
20
157.588829
11
11.787500
21
151.490976
0
LINE
8
boundary
62
5
39
2
10
11.787500
20
151.490976
11
11.787500
21
142.089000
0
LINE
8
boundary
62
5
39
2
10
11.787500
20
142.089000
11
11.787500
21
137.572270
0
LINE
8
boundary
62
5
39
2
10
11.787500
20
137.572270
11
11.932500
21
137.372270
0
LINE
8
boundary
62
5
39
2
10
11.932500
20
137.372270
11
52.151614
21
137.372270
0
LINE
8
boundary
62
5
39
2
10
52.151614
20
137.372270
11
52.151614
21
133.472270
0
LINE
8
boundary
62
5
39
2
10
52.151614
20
133.472270
11
11.932500
21
133.472270
0
LINE
8
boundary
62
5
39
2
10
11.932500
20
133.472270
11
11.787500
21
133.272270
0
LINE
8
boundary
62
5
39
2
10
11.787500
20
133.272270
11
11.787500
21
126.845711
0
LINE
8
boundary
62
5
39
2
10
11.787500
20
126.845711
11
11.787500
21
115.984607
0
LINE
8
boundary
62
5
39
2
10
11.787500
20
115.984607
11
11.787500
21
99.238412
0
LINE
8
boundary
62
5
39
2
10
11.787500
20
99.238412
11
11.787500
21
94.075313
0
LINE
8
boundary
62
5
39
2
10
11.787500
20
94.075313
11
11.932500
21
93.875313
0
LINE
8
boundary
62
5
39
2
10
11.932500
20
93.875313
11
52.151614
21
93.875313
0
LINE
8
boundary
62
5
39
2
10
52.151614
20
93.875313
11
52.151614
21
89.975313
0
LINE
8
boundary
62
5
39
2
10
52.151614
20
89.975313
11
11.932500
21
89.975313
0
LINE
8
boundary
62
5
39
2
10
11.932500
20
89.975313
11
11.787500
21
89.775313
0
LINE
8
boundary
62
5
39
2
10
11.787500
20
89.775313
11
11.787500
21
84.503248
0
LINE
8
boundary
62
5
39
2
10
11.787500
20
84.503248
11
11.787500
21
78.427777
0
LINE
8
boundary
62
5
39
2
10
11.787500
20
78.427777
11
11.787500
21
69.060312
0
LINE
8
boundary
62
5
39
2
10
11.787500
20
69.060312
11
11.787500
21
67.236770
0
LINE
8
boundary
62
5
39
2
10
11.787500
20
67.236770
11
11.787500
21
64.425141
0
LINE
8
boundary
62
5
39
2
10
11.787500
20
64.425141
11
11.787500
21
62.601603
0
LINE
8
boundary
62
5
39
2
10
11.787500
20
62.601603
11
11.787500
21
59.789982
0
LINE
8
boundary
62
5
39
2
10
11.787500
20
59.789982
11
11.787500
21
40.905122
0
LINE
8
annotation
62
1
39
211
10
60.912413
20
88.725313
11
60.912413
21
95.125313
0
LINE
8
annotation
62
1
39
211
10
60.912413
20
95.125313
11
59.489611
21
93.702110
0
LINE
8
annotation
62
1
39
211
10
61.622007
20
132.222218
11
58.779614
21
132.222218
0
LINE
8
annotation
62
1
39
211
10
58.779614
20
132.222218
11
61.406079
21
136.450488
0
LINE
8
annotation
62
1
39
211
10
61.406079
20
136.450488
11
61.406079
21
136.450488
0
LINE
8
annotation
62
1
39
211
10
61.406079
20
136.450488
11
61.409219
21
136.454374
0
LINE
8
annotation
62
1
39
211
10
61.409219
20
136.454374
11
61.412229
21
136.458292
0
LINE
8
annotation
62
1
39
211
10
61.412229
20
136.458292
11
61.415131
21
136.462276
0
LINE
8
annotation
62
1
39
211
10
61.415131
20
136.462276
11
61.417944
21
136.466360
0
LINE
8
annotation
62
1
39
211
10
61.417944
20
136.466360
11
61.420688
21
136.470575
0
LINE
8
annotation
62
1
39
211
10
61.420688
20
136.470575
11
61.423382
21
136.474956
0
LINE
8
annotation
62
1
39
211
10
61.423382
20
136.474956
11
61.426046
21
136.479535
0
LINE
8
annotation
62
1
39
211
10
61.426046
20
136.479535
11
61.428700
21
136.484345
0
LINE
8
annotation
62
1
39
211
10
61.428700
20
136.484345
11
61.431364
21
136.489420
0
LINE
8
annotation
62
1
39
211
10
61.431364
20
136.489420
11
61.431364
21
136.489420
0
LINE
8
annotation
62
1
39
211
10
61.431364
20
136.489420
11
61.539810
21
136.722263
0
LINE
8
annotation
62
1
39
211
10
61.539810
20
136.722263
11
61.603163
21
136.963625
0
LINE
8
annotation
62
1
39
211
10
61.603163
20
136.963625
11
61.622974
21
137.208052
0
LINE
8
annotation
62
1
39
211
10
61.622974
20
137.208052
11
61.600796
21
137.450092
0
LINE
8
annotation
62
1
39
211
10
61.600796
20
137.450092
11
61.538183
21
137.684289
0
LINE
8
annotation
62
1
39
211
10
61.538183
20
137.684289
11
61.436686
21
137.905190
0
LINE
8
annotation
62
1
39
211
10
61.436686
20
137.905190
11
61.297858
21
138.107342
0
LINE
8
annotation
62
1
39
211
10
61.297858
20
138.107342
11
61.123251
21
138.285290
0
LINE
8
annotation
62
1
39
211
10
61.123251
20
138.285290
11
60.914419
21
138.433581
0
LINE
8
annotation
62
1
39
211
10
60.914419
20
138.433581
11
60.914419
21
138.433581
0
LINE
8
annotation
62
1
39
211
10
60.914419
20
138.433581
11
60.680929
21
138.540486
0
LINE
8
annotation
62
1
39
211
10
60.680929
20
138.540486
11
60.439197
21
138.602863
0
LINE
8
annotation
62
1
39
211
10
60.439197
20
138.602863
11
60.194627
21
138.622114
0
LINE
8
annotation
62
1
39
211
10
60.194627
20
138.622114
11
59.952624
21
138.599644
0
LINE
8
annotation
62
1
39
211
10
59.952624
20
138.599644
11
59.718592
21
138.536857
0
LINE
8
annotation
62
1
39
211
10
59.718592
20
138.536857
11
59.497935
21
138.435157
0
LINE
8
annotation
62
1
39
211
10
59.497935
20
138.435157
11
59.296058
21
138.295947
0
LINE
8
annotation
62
1
39
211
10
59.296058
20
138.295947
11
59.118364
21
138.120633
0
LINE
8
annotation
62
1
39
211
10
59.118364
20
138.120633
11
58.970258
21
137.910616
0
LINE
8
annotation
62
1
39
211
10
58.970258
20
137.910616
11
58.783628
21
137.552608
0
LINE
8
annotation
62
1
39
211
10
80.371849
20
96.519897
11
78.570766
21
93.914795
0
LINE
8
annotation
62
1
39
211
10
78.570766
20
93.914795
11
76.769344
21
96.519897
0
LINE
8
annotation
62
1
39
211
10
78.570766
20
94.124436
11
78.570766
21
91.119018
0
LINE
8
annotation
62
1
39
211
10
85.350652
20
93.819457
11
82.397729
21
93.819457
0
LINE
8
annotation
62
1
39
211
10
88.576125
20
91.119187
11
88.576125
21
96.519727
0
LINE
8
annotation
62
1
39
211
10
88.576125
20
96.519727
11
87.375516
21
95.318779
0
LINE
8
hole
62
5
39
2
10
161.223218
20
69.060318
11
157.322276
21
75.135789
0
LINE
8
hole
62
5
39
2
10
157.322276
20
75.135789
11
151.307607
21
84.503248
0
LINE
8
hole
62
5
39
2
10
151.307607
20
84.503248
11
155.208550
21
84.503248
0
LINE
8
hole
62
5
39
2
10
155.208550
20
84.503248
11
161.223218
21
84.503248
0
LINE
8
hole
62
5
39
2
10
161.223218
20
84.503248
11
161.223218
21
75.135788
0
LINE
8
hole
62
5
39
2
10
161.223218
20
75.135788
11
161.223218
21
69.060318
0
LINE
8
hole
62
5
39
2
10
111.986455
20
69.060322
11
111.986455
21
78.427781
0
LINE
8
hole
62
5
39
2
10
111.986455
20
78.427781
11
111.986455
21
84.503248
0
LINE
8
hole
62
5
39
2
10
111.986455
20
84.503248
11
115.887399
21
84.503248
0
LINE
8
hole
62
5
39
2
10
115.887399
20
84.503248
11
121.902068
21
84.503248
0
LINE
8
hole
62
5
39
2
10
121.902068
20
84.503248
11
118.001125
21
78.427781
0
LINE
8
hole
62
5
39
2
10
118.001125
20
78.427781
11
111.986455
21
69.060322
0
LINE
8
hole
62
5
39
2
10
147.324446
20
142.089000
11
144.785872
21
142.089000
0
LINE
8
hole
62
5
39
2
10
144.785872
20
142.089000
11
142.356666
21
142.089000
0
LINE
8
hole
62
5
39
2
10
142.356666
20
142.089000
11
138.611185
21
142.089000
0
LINE
8
hole
62
5
39
2
10
138.611185
20
142.089000
11
138.611185
21
151.490976
0
LINE
8
hole
62
5
39
2
10
138.611185
20
151.490976
11
138.611185
21
157.588829
0
LINE
8
hole
62
5
39
2
10
138.611185
20
157.588829
11
151.767196
21
157.588829
0
LINE
8
hole
62
5
39
2
10
151.767196
20
157.588829
11
172.051792
21
157.588829
0
LINE
8
hole
62
5
39
2
10
172.051792
20
157.588829
11
172.051791
21
148.186854
0
LINE
8
hole
62
5
39
2
10
172.051791
20
148.186854
11
172.051792
21
142.089000
0
LINE
8
hole
62
5
39
2
10
172.051792
20
142.089000
11
167.791677
21
142.089000
0
LINE
8
hole
62
5
39
2
10
167.791677
20
142.089000
11
161.223218
21
142.089000
0
LINE
8
hole
62
5
39
2
10
161.223218
20
142.089000
11
157.322275
21
142.089000
0
LINE
8
hole
62
5
39
2
10
157.322275
20
142.089000
11
151.307615
21
142.089000
0
LINE
8
hole
62
5
39
2
10
151.307615
20
142.089000
11
150.388320
21
142.089000
0
LINE
8
hole
62
5
39
2
10
150.388320
20
142.089000
11
148.970897
21
142.089000
0
LINE
8
hole
62
5
39
2
10
148.970897
20
142.089000
11
147.324446
21
142.089000
0
LINE
8
hole
62
5
39
2
10
111.986455
20
142.089000
11
107.726340
21
142.089000
0
LINE
8
hole
62
5
39
2
10
107.726340
20
142.089000
11
101.157882
21
142.089000
0
LINE
8
hole
62
5
39
2
10
101.157882
20
142.089000
11
101.157881
21
151.490976
0
LINE
8
hole
62
5
39
2
10
101.157881
20
151.490976
11
101.157881
21
157.588830
0
LINE
8
hole
62
5
39
2
10
101.157881
20
157.588830
11
114.313892
21
157.588829
0
LINE
8
hole
62
5
39
2
10
114.313892
20
157.588829
11
134.598497
21
157.588830
0
LINE
8
hole
62
5
39
2
10
134.598497
20
157.588830
11
134.598496
21
148.186854
0
LINE
8
hole
62
5
39
2
10
134.598496
20
148.186854
11
134.598497
21
142.089001
0
LINE
8
hole
62
5
39
2
10
134.598497
20
142.089001
11
132.169290
21
142.089000
0
LINE
8
hole
62
5
39
2
10
132.169290
20
142.089000
11
128.423808
21
142.089001
0
LINE
8
hole
62
5
39
2
10
128.423808
20
142.089001
11
126.777357
21
142.089000
0
LINE
8
hole
62
5
39
2
10
126.777357
20
142.089000
11
124.238777
21
142.089001
0
LINE
8
hole
62
5
39
2
10
124.238777
20
142.089001
11
123.319482
21
142.089000
0
LINE
8
hole
62
5
39
2
10
123.319482
20
142.089000
11
121.902068
21
142.089000
0
LINE
8
hole
62
5
39
2
10
121.902068
20
142.089000
11
118.001125
21
142.089001
0
LINE
8
hole
62
5
39
2
10
118.001125
20
142.089001
11
111.986455
21
142.089000
0
LINE
8
hole
62
5
39
2
10
128.423808
20
99.238411
11
127.811449
21
99.238412
0
LINE
8
hole
62
5
39
2
10
127.811449
20
99.238412
11
124.238777
21
99.238411
0
LINE
8
hole
62
5
39
2
10
124.238777
20
99.238411
11
124.238777
21
103.277948
0
LINE
8
hole
62
5
39
2
10
124.238777
20
103.277948
11
124.238777
21
126.845711
0
LINE
8
hole
62
5
39
2
10
124.238777
20
126.845711
11
124.851136
21
126.845711
0
LINE
8
hole
62
5
39
2
10
124.851136
20
126.845711
11
128.423808
21
126.845712
0
LINE
8
hole
62
5
39
2
10
128.423808
20
126.845712
11
129.327297
21
126.845712
0
LINE
8
hole
62
5
39
2
10
129.327297
20
126.845712
11
134.598502
21
126.845712
0
LINE
8
hole
62
5
39
2
10
134.598502
20
126.845712
11
135.185643
21
126.845712
0
LINE
8
hole
62
5
39
2
10
135.185643
20
126.845712
11
138.611185
21
126.845711
0
LINE
8
hole
62
5
39
2
10
138.611185
20
126.845711
11
139.514672
21
126.845712
0
LINE
8
hole
62
5
39
2
10
139.514672
20
126.845712
11
144.785865
21
126.845711
0
LINE
8
hole
62
5
39
2
10
144.785865
20
126.845711
11
145.398224
21
126.845711
0
LINE
8
hole
62
5
39
2
10
145.398224
20
126.845711
11
148.970897
21
126.845711
0
LINE
8
hole
62
5
39
2
10
148.970897
20
126.845711
11
148.970897
21
122.806175
0
LINE
8
hole
62
5
39
2
10
148.970897
20
122.806175
11
148.970898
21
99.238411
0
LINE
8
hole
62
5
39
2
10
148.970898
20
99.238411
11
148.358538
21
99.238412
0
LINE
8
hole
62
5
39
2
10
148.358538
20
99.238412
11
144.785865
21
99.238412
0
LINE
8
hole
62
5
39
2
10
144.785865
20
99.238412
11
143.882377
21
99.238412
0
LINE
8
hole
62
5
39
2
10
143.882377
20
99.238412
11
138.611185
21
99.238412
0
LINE
8
hole
62
5
39
2
10
138.611185
20
99.238412
11
138.024042
21
99.238411
0
LINE
8
hole
62
5
39
2
10
138.024042
20
99.238411
11
134.598488
21
99.238411
0
LINE
8
hole
62
5
39
2
10
134.598488
20
99.238411
11
133.695001
21
99.238412
0
LINE
8
hole
62
5
39
2
10
133.695001
20
99.238412
11
128.423808
21
99.238411
0
LINE
8
boundary
62
5
39
2
10
96.190727
20
30.672360
11
96.190728
21
11.787500
0
LINE
8
boundary
62
5
39
2
10
96.190728
20
11.787500
11
98.144877
21
11.787500
0
LINE
8
boundary
62
5
39
2
10
98.144877
20
11.787500
11
101.157881
21
11.787500
0
LINE
8
boundary
62
5
39
2
10
101.157881
20
11.787500
11
105.417996
21
11.787500
0
LINE
8
boundary
62
5
39
2
10
105.417996
20
11.787500
11
111.986455
21
11.787500
0
LINE
8
boundary
62
5
39
2
10
111.986455
20
11.787500
11
111.986455
21
40.905122
0
LINE
8
boundary
62
5
39
2
10
111.986455
20
40.905122
11
111.986455
21
59.789981
0
LINE
8
boundary
62
5
39
2
10
111.986455
20
59.789981
11
118.453144
21
69.512532
0
LINE
8
boundary
62
5
39
2
10
118.453144
20
69.512532
11
128.423808
21
84.503248
0
LINE
8
boundary
62
5
39
2
10
128.423808
20
84.503248
11
130.853015
21
84.503248
0
LINE
8
boundary
62
5
39
2
10
130.853015
20
84.503248
11
134.598488
21
84.503248
0
LINE
8
boundary
62
5
39
2
10
134.598488
20
84.503248
11
136.177140
21
84.503248
0
LINE
8
boundary
62
5
39
2
10
136.177140
20
84.503248
11
138.611185
21
84.503248
0
LINE
8
boundary
62
5
39
2
10
138.611185
20
84.503248
11
141.040392
21
84.503248
0
LINE
8
boundary
62
5
39
2
10
141.040392
20
84.503248
11
144.785865
21
84.503248
0
LINE
8
boundary
62
5
39
2
10
144.785865
20
84.503248
11
151.252554
21
74.780699
0
LINE
8
boundary
62
5
39
2
10
151.252554
20
74.780699
11
161.223218
21
59.789987
0
LINE
8
boundary
62
5
39
2
10
161.223218
20
59.789987
11
161.223218
21
30.672362
0
LINE
8
boundary
62
5
39
2
10
161.223218
20
30.672362
11
161.223218
21
11.787500
0
LINE
8
boundary
62
5
39
2
10
161.223218
20
11.787500
11
165.483333
21
11.787500
0
LINE
8
boundary
62
5
39
2
10
165.483333
20
11.787500
11
172.051792
21
11.787500
0
LINE
8
boundary
62
5
39
2
10
172.051792
20
11.787500
11
174.005944
21
11.787500
0
LINE
8
boundary
62
5
39
2
10
174.005944
20
11.787500
11
177.018954
21
11.787500
0
LINE
8
boundary
62
5
39
2
10
177.018954
20
11.787500
11
177.018955
21
40.905125
0
LINE
8
boundary
62
5
39
2
10
177.018955
20
40.905125
11
177.018955
21
59.789987
0
LINE
8
boundary
62
5
39
2
10
177.018955
20
59.789987
11
177.018955
21
62.601616
0
LINE
8
boundary
62
5
39
2
10
177.018955
20
62.601616
11
177.018955
21
64.425152
0
LINE
8
boundary
62
5
39
2
10
177.018955
20
64.425152
11
177.018955
21
67.236775
0
LINE
8
boundary
62
5
39
2
10
177.018955
20
67.236775
11
177.018955
21
69.060318
0
LINE
8
boundary
62
5
39
2
10
177.018955
20
69.060318
11
177.018954
21
78.427777
0
LINE
8
boundary
62
5
39
2
10
177.018954
20
78.427777
11
177.018954
21
84.503248
0
LINE
8
boundary
62
5
39
2
10
177.018954
20
84.503248
11
177.018954
21
93.441388
0
LINE
8
boundary
62
5
39
2
10
177.018954
20
93.441388
11
177.018954
21
99.238412
0
LINE
8
boundary
62
5
39
2
10
177.018954
20
99.238412
11
177.018954
21
115.984607
0
LINE
8
boundary
62
5
39
2
10
177.018954
20
115.984607
11
177.018954
21
126.845712
0
LINE
8
boundary
62
5
39
2
10
177.018954
20
126.845712
11
177.018954
21
136.092074
0
LINE
8
boundary
62
5
39
2
10
177.018954
20
136.092074
11
177.018955
21
142.089000
0
LINE
8
boundary
62
5
39
2
10
177.018955
20
142.089000
11
177.018954
21
151.490976
0
LINE
8
boundary
62
5
39
2
10
177.018954
20
151.490976
11
177.018955
21
157.588830
0
LINE
8
boundary
62
5
39
2
10
177.018955
20
157.588830
11
177.018954
21
159.007640
0
LINE
8
boundary
62
5
39
2
10
177.018954
20
159.007640
11
177.018954
21
159.927840
0
LINE
8
boundary
62
5
39
2
10
177.018954
20
159.927840
11
177.018954
21
161.055888
0
LINE
8
boundary
62
5
39
2
10
177.018954
20
161.055888
11
177.018955
21
161.787507
0
LINE
8
boundary
62
5
39
2
10
177.018955
20
161.787507
11
175.064802
21
161.787507
0
LINE
8
boundary
62
5
39
2
10
175.064802
20
161.787507
11
172.051792
21
161.787507
0
LINE
8
boundary
62
5
39
2
10
172.051792
20
161.787507
11
172.051791
21
160.659460
0
LINE
8
boundary
62
5
39
2
10
172.051791
20
160.659460
11
172.051792
21
159.927840
0
LINE
8
boundary
62
5
39
2
10
172.051792
20
159.927840
11
158.895781
21
159.927840
0
LINE
8
boundary
62
5
39
2
10
158.895781
20
159.927840
11
138.611185
21
159.927840
0
LINE
8
boundary
62
5
39
2
10
138.611185
20
159.927840
11
138.611185
21
161.055888
0
LINE
8
boundary
62
5
39
2
10
138.611185
20
161.055888
11
138.611185
21
161.787507
0
LINE
8
boundary
62
5
39
2
10
138.611185
20
161.787507
11
137.032533
21
161.787507
0
LINE
8
boundary
62
5
39
2
10
137.032533
20
161.787507
11
134.598497
21
161.787507
0
LINE
8
boundary
62
5
39
2
10
134.598497
20
161.787507
11
134.598496
21
160.659460
0
LINE
8
boundary
62
5
39
2
10
134.598496
20
160.659460
11
134.598496
21
159.927840
0
LINE
8
boundary
62
5
39
2
10
134.598496
20
159.927840
11
121.442485
21
159.927840
0
LINE
8
boundary
62
5
39
2
10
121.442485
20
159.927840
11
101.157881
21
159.927840
0
LINE
8
boundary
62
5
39
2
10
101.157881
20
159.927840
11
101.157881
21
161.055888
0
LINE
8
boundary
62
5
39
2
10
101.157881
20
161.055888
11
101.157881
21
161.787508
0
LINE
8
boundary
62
5
39
2
10
101.157881
20
161.787508
11
99.203732
21
161.787507
0
LINE
8
boundary
62
5
39
2
10
99.203732
20
161.787507
11
96.190727
21
161.787507
0
LINE
8
boundary
62
5
39
2
10
96.190727
20
161.787507
11
96.190727
21
160.659460
0
LINE
8
boundary
62
5
39
2
10
96.190727
20
160.659460
11
96.190727
21
159.927840
0
LINE
8
boundary
62
5
39
2
10
96.190727
20
159.927840
11
96.190727
21
158.509030
0
LINE
8
boundary
62
5
39
2
10
96.190727
20
158.509030
11
96.190728
21
157.588829
0
LINE
8
boundary
62
5
39
2
10
96.190728
20
157.588829
11
96.190728
21
148.186854
0
LINE
8
boundary
62
5
39
2
10
96.190728
20
148.186854
11
96.190728
21
142.089000
0
LINE
8
boundary
62
5
39
2
10
96.190728
20
142.089000
11
96.190728
21
137.572270
0
LINE
8
boundary
62
5
39
2
10
96.190728
20
137.572270
11
96.335727
21
137.372270
0
LINE
8
boundary
62
5
39
2
10
96.335727
20
137.372270
11
136.554841
21
137.372270
0
LINE
8
boundary
62
5
39
2
10
136.554841
20
137.372270
11
136.554841
21
133.472270
0
LINE
8
boundary
62
5
39
2
10
136.554841
20
133.472270
11
96.335727
21
133.472270
0
LINE
8
boundary
62
5
39
2
10
96.335727
20
133.472270
11
96.190727
21
133.272270
0
LINE
8
boundary
62
5
39
2
10
96.190727
20
133.272270
11
96.190727
21
132.842638
0
LINE
8
boundary
62
5
39
2
10
96.190727
20
132.842638
11
96.190727
21
126.845711
0
LINE
8
boundary
62
5
39
2
10
96.190727
20
126.845711
11
96.190727
21
110.099516
0
LINE
8
boundary
62
5
39
2
10
96.190727
20
110.099516
11
96.190727
21
99.238412
0
LINE
8
boundary
62
5
39
2
10
96.190727
20
99.238412
11
96.190728
21
94.075313
0
LINE
8
boundary
62
5
39
2
10
96.190728
20
94.075313
11
96.335728
21
93.875313
0
LINE
8
boundary
62
5
39
2
10
96.335728
20
93.875313
11
136.554841
21
93.875313
0
LINE
8
boundary
62
5
39
2
10
136.554841
20
93.875313
11
136.554841
21
89.975313
0
LINE
8
boundary
62
5
39
2
10
136.554841
20
89.975313
11
96.335727
21
89.975313
0
LINE
8
boundary
62
5
39
2
10
96.335727
20
89.975313
11
96.190727
21
89.775313
0
LINE
8
boundary
62
5
39
2
10
96.190727
20
89.775313
11
96.190727
21
84.503248
0
LINE
8
boundary
62
5
39
2
10
96.190727
20
84.503248
11
96.190727
21
75.135788
0
LINE
8
boundary
62
5
39
2
10
96.190727
20
75.135788
11
96.190727
21
69.060321
0
LINE
8
boundary
62
5
39
2
10
96.190727
20
69.060321
11
96.190728
21
66.248687
0
LINE
8
boundary
62
5
39
2
10
96.190728
20
66.248687
11
96.190727
21
64.425141
0
LINE
8
boundary
62
5
39
2
10
96.190727
20
64.425141
11
96.190727
21
61.613519
0
LINE
8
boundary
62
5
39
2
10
96.190727
20
61.613519
11
96.190727
21
59.789982
0
LINE
8
boundary
62
5
39
2
10
96.190727
20
59.789982
11
96.190727
21
30.672360
0
LINE
8
annotation
62
1
39
211
10
145.315640
20
88.725313
11
145.315640
21
95.125313
0
LINE
8
annotation
62
1
39
211
10
145.315640
20
95.125313
11
143.892838
21
93.702110
0
LINE
8
annotation
62
1
39
211
10
146.025235
20
132.222218
11
143.182842
21
132.222218
0
LINE
8
annotation
62
1
39
211
10
143.182842
20
132.222218
11
145.809306
21
136.450488
0
LINE
8
annotation
62
1
39
211
10
145.809306
20
136.450488
11
145.809306
21
136.450488
0
LINE
8
annotation
62
1
39
211
10
145.809306
20
136.450488
11
145.812446
21
136.454374
0
LINE
8
annotation
62
1
39
211
10
145.812446
20
136.454374
11
145.815457
21
136.458292
0
LINE
8
annotation
62
1
39
211
10
145.815457
20
136.458292
11
145.818359
21
136.462276
0
LINE
8
annotation
62
1
39
211
10
145.818359
20
136.462276
11
145.821172
21
136.466360
0
LINE
8
annotation
62
1
39
211
10
145.821172
20
136.466360
11
145.823915
21
136.470575
0
LINE
8
annotation
62
1
39
211
10
145.823915
20
136.470575
11
145.826609
21
136.474956
0
LINE
8
annotation
62
1
39
211
10
145.826609
20
136.474956
11
145.829273
21
136.479535
0
LINE
8
annotation
62
1
39
211
10
145.829273
20
136.479535
11
145.831927
21
136.484345
0
LINE
8
annotation
62
1
39
211
10
145.831927
20
136.484345
11
145.834591
21
136.489420
0
LINE
8
annotation
62
1
39
211
10
145.834591
20
136.489420
11
145.834591
21
136.489420
0
LINE
8
annotation
62
1
39
211
10
145.834591
20
136.489420
11
145.943037
21
136.722263
0
LINE
8
annotation
62
1
39
211
10
145.943037
20
136.722263
11
146.006390
21
136.963625
0
LINE
8
annotation
62
1
39
211
10
146.006390
20
136.963625
11
146.026201
21
137.208052
0
LINE
8
annotation
62
1
39
211
10
146.026201
20
137.208052
11
146.004024
21
137.450092
0
LINE
8
annotation
62
1
39
211
10
146.004024
20
137.450092
11
145.941410
21
137.684289
0
LINE
8
annotation
62
1
39
211
10
145.941410
20
137.684289
11
145.839913
21
137.905190
0
LINE
8
annotation
62
1
39
211
10
145.839913
20
137.905190
11
145.701085
21
138.107342
0
LINE
8
annotation
62
1
39
211
10
145.701085
20
138.107342
11
145.526479
21
138.285290
0
LINE
8
annotation
62
1
39
211
10
145.526479
20
138.285290
11
145.317647
21
138.433581
0
LINE
8
annotation
62
1
39
211
10
145.317647
20
138.433581
11
145.317647
21
138.433581
0
LINE
8
annotation
62
1
39
211
10
145.317647
20
138.433581
11
145.084156
21
138.540486
0
LINE
8
annotation
62
1
39
211
10
145.084156
20
138.540486
11
144.842424
21
138.602863
0
LINE
8
annotation
62
1
39
211
10
144.842424
20
138.602863
11
144.597854
21
138.622114
0
LINE
8
annotation
62
1
39
211
10
144.597854
20
138.622114
11
144.355851
21
138.599644
0
LINE
8
annotation
62
1
39
211
10
144.355851
20
138.599644
11
144.121819
21
138.536857
0
LINE
8
annotation
62
1
39
211
10
144.121819
20
138.536857
11
143.901162
21
138.435157
0
LINE
8
annotation
62
1
39
211
10
143.901162
20
138.435157
11
143.699285
21
138.295947
0
LINE
8
annotation
62
1
39
211
10
143.699285
20
138.295947
11
143.521591
21
138.120633
0
LINE
8
annotation
62
1
39
211
10
143.521591
20
138.120633
11
143.373485
21
137.910616
0
LINE
8
annotation
62
1
39
211
10
143.373485
20
137.910616
11
143.186855
21
137.552608
0
LINE
8
annotation
62
1
39
211
10
159.188090
20
115.271773
11
157.387007
21
112.666671
0
LINE
8
annotation
62
1
39
211
10
157.387007
20
112.666671
11
155.585585
21
115.271773
0
LINE
8
annotation
62
1
39
211
10
157.387007
20
112.876312
11
157.387007
21
109.870894
0
LINE
8
annotation
62
1
39
211
10
164.166893
20
112.571333
11
161.213970
21
112.571333
0
LINE
8
annotation
62
1
39
211
10
169.190232
20
111.071672
11
166.191587
21
111.071672
0
LINE
8
annotation
62
1
39
211
10
166.191587
20
111.071672
11
167.389149
21
115.271603
0
LINE
8
annotation
62
1
39
211
10
168.291384
20
109.871063
11
168.291384
21
112.269572
0
LINE
8
hole
62
5
39
2
10
245.626445
20
71.923650
11
245.626445
21
69.060312
0
LINE
8
hole
62
5
39
2
10
245.626445
20
69.060312
11
243.787951
21
71.923650
0
LINE
8
hole
62
5
39
2
10
243.787951
20
71.923650
11
235.710835
21
84.503248
0
LINE
8
hole
62
5
39
2
10
235.710835
20
84.503248
11
237.549329
21
84.503248
0
LINE
8
hole
62
5
39
2
10
237.549329
20
84.503248
11
245.626445
21
84.503248
0
LINE
8
hole
62
5
39
2
10
245.626445
20
84.503248
11
245.626445
21
71.923650
0
LINE
8
hole
62
5
39
2
10
196.389682
20
69.060313
11
196.389682
21
81.639910
0
LINE
8
hole
62
5
39
2
10
196.389682
20
81.639910
11
196.389682
21
84.503248
0
LINE
8
hole
62
5
39
2
10
196.389682
20
84.503248
11
198.228177
21
84.503248
0
LINE
8
hole
62
5
39
2
10
198.228177
20
84.503248
11
206.305296
21
84.503248
0
LINE
8
hole
62
5
39
2
10
206.305296
20
84.503248
11
204.466801
21
81.639910
0
LINE
8
hole
62
5
39
2
10
204.466801
20
81.639910
11
196.389682
21
69.060313
0
LINE
8
boundary
62
5
39
2
10
180.593955
20
20.687837
11
180.593955
21
11.787500
0
LINE
8
boundary
62
5
39
2
10
180.593955
20
11.787500
11
181.514935
21
11.787500
0
LINE
8
boundary
62
5
39
2
10
181.514935
20
11.787500
11
185.561109
21
11.787500
0
LINE
8
boundary
62
5
39
2
10
185.561109
20
11.787500
11
187.568879
21
11.787500
0
LINE
8
boundary
62
5
39
2
10
187.568879
20
11.787500
11
196.389683
21
11.787500
0
LINE
8
boundary
62
5
39
2
10
196.389683
20
11.787500
11
196.389682
21
50.889645
0
LINE
8
boundary
62
5
39
2
10
196.389682
20
50.889645
11
196.389682
21
59.789981
0
LINE
8
boundary
62
5
39
2
10
196.389682
20
59.789981
11
199.437399
21
64.372169
0
LINE
8
boundary
62
5
39
2
10
199.437399
20
64.372169
11
212.827035
21
84.503248
0
LINE
8
boundary
62
5
39
2
10
212.827035
20
84.503248
11
213.971908
21
84.503248
0
LINE
8
boundary
62
5
39
2
10
213.971908
20
84.503248
11
219.001716
21
84.503248
0
LINE
8
boundary
62
5
39
2
10
219.001716
20
84.503248
11
219.745726
21
84.503248
0
LINE
8
boundary
62
5
39
2
10
219.745726
20
84.503248
11
223.014413
21
84.503248
0
LINE
8
boundary
62
5
39
2
10
223.014413
20
84.503248
11
224.159285
21
84.503248
0
LINE
8
boundary
62
5
39
2
10
224.159285
20
84.503248
11
229.189092
21
84.503248
0
LINE
8
boundary
62
5
39
2
10
229.189092
20
84.503248
11
232.236809
21
79.921060
0
LINE
8
boundary
62
5
39
2
10
232.236809
20
79.921060
11
245.626445
21
59.789986
0
LINE
8
boundary
62
5
39
2
10
245.626445
20
59.789986
11
245.626445
21
20.687837
0
LINE
8
boundary
62
5
39
2
10
245.626445
20
20.687837
11
245.626445
21
11.787500
0
LINE
8
boundary
62
5
39
2
10
245.626445
20
11.787500
11
247.634215
21
11.787500
0
LINE
8
boundary
62
5
39
2
10
247.634215
20
11.787500
11
256.455019
21
11.787500
0
LINE
8
boundary
62
5
39
2
10
256.455019
20
11.787500
11
257.376001
21
11.787500
0
LINE
8
boundary
62
5
39
2
10
257.376001
20
11.787500
11
261.422182
21
11.787500
0
LINE
8
boundary
62
5
39
2
10
261.422182
20
11.787500
11
261.422182
21
50.889650
0
LINE
8
boundary
62
5
39
2
10
261.422182
20
50.889650
11
261.422182
21
59.789986
0
LINE
8
boundary
62
5
39
2
10
261.422182
20
59.789986
11
261.422182
21
63.565717
0
LINE
8
boundary
62
5
39
2
10
261.422182
20
63.565717
11
261.422182
21
64.425141
0
LINE
8
boundary
62
5
39
2
10
261.422182
20
64.425141
11
261.422182
21
68.200886
0
LINE
8
boundary
62
5
39
2
10
261.422182
20
68.200886
11
261.422182
21
69.060312
0
LINE
8
boundary
62
5
39
2
10
261.422182
20
69.060312
11
261.422182
21
81.639910
0
LINE
8
boundary
62
5
39
2
10
261.422182
20
81.639910
11
261.422182
21
84.503248
0
LINE
8
boundary
62
5
39
2
10
261.422182
20
84.503248
11
261.422182
21
96.506305
0
LINE
8
boundary
62
5
39
2
10
261.422182
20
96.506305
11
261.422182
21
99.238411
0
LINE
8
boundary
62
5
39
2
10
261.422182
20
99.238411
11
261.422182
21
121.726929
0
LINE
8
boundary
62
5
39
2
10
261.422182
20
121.726929
11
261.422182
21
126.845711
0
LINE
8
boundary
62
5
39
2
10
261.422182
20
126.845711
11
261.422182
21
139.262680
0
LINE
8
boundary
62
5
39
2
10
261.422182
20
139.262680
11
261.422182
21
142.089000
0
LINE
8
boundary
62
5
39
2
10
261.422182
20
142.089000
11
260.501200
21
142.089000
0
LINE
8
boundary
62
5
39
2
10
260.501200
20
142.089000
11
256.455019
21
142.089000
0
LINE
8
boundary
62
5
39
2
10
256.455019
20
142.089000
11
254.447249
21
142.089000
0
LINE
8
boundary
62
5
39
2
10
254.447249
20
142.089000
11
245.626445
21
142.089000
0
LINE
8
boundary
62
5
39
2
10
245.626445
20
142.089000
11
243.787951
21
142.089000
0
LINE
8
boundary
62
5
39
2
10
243.787951
20
142.089000
11
235.710835
21
142.089000
0
LINE
8
boundary
62
5
39
2
10
235.710835
20
142.089000
11
235.277576
21
142.089000
0
LINE
8
boundary
62
5
39
2
10
235.277576
20
142.089000
11
233.374125
21
142.089000
0
LINE
8
boundary
62
5
39
2
10
233.374125
20
142.089000
11
232.598161
21
142.089000
0
LINE
8
boundary
62
5
39
2
10
232.598161
20
142.089000
11
229.189092
21
142.089000
0
LINE
8
boundary
62
5
39
2
10
229.189092
20
142.089000
11
228.044220
21
142.089000
0
LINE
8
boundary
62
5
39
2
10
228.044220
20
142.089000
11
223.014412
21
142.089001
0
LINE
8
boundary
62
5
39
2
10
223.014412
20
142.089001
11
222.270402
21
142.089001
0
LINE
8
boundary
62
5
39
2
10
222.270402
20
142.089001
11
219.001716
21
142.089001
0
LINE
8
boundary
62
5
39
2
10
219.001716
20
142.089001
11
217.856843
21
142.089000
0
LINE
8
boundary
62
5
39
2
10
217.856843
20
142.089000
11
212.827035
21
142.089000
0
LINE
8
boundary
62
5
39
2
10
212.827035
20
142.089000
11
212.051071
21
142.089000
0
LINE
8
boundary
62
5
39
2
10
212.051071
20
142.089000
11
208.642004
21
142.089000
0
LINE
8
boundary
62
5
39
2
10
208.642004
20
142.089000
11
208.208745
21
142.089000
0
LINE
8
boundary
62
5
39
2
10
208.208745
20
142.089000
11
206.305296
21
142.089000
0
LINE
8
boundary
62
5
39
2
10
206.305296
20
142.089000
11
204.466801
21
142.089001
0
LINE
8
boundary
62
5
39
2
10
204.466801
20
142.089001
11
196.389682
21
142.089001
0
LINE
8
boundary
62
5
39
2
10
196.389682
20
142.089001
11
194.381912
21
142.089000
0
LINE
8
boundary
62
5
39
2
10
194.381912
20
142.089000
11
185.561109
21
142.089000
0
LINE
8
boundary
62
5
39
2
10
185.561109
20
142.089000
11
184.640128
21
142.089001
0
LINE
8
boundary
62
5
39
2
10
184.640128
20
142.089001
11
180.593955
21
142.089001
0
LINE
8
boundary
62
5
39
2
10
180.593955
20
142.089001
11
180.593955
21
137.572270
0
LINE
8
boundary
62
5
39
2
10
180.593955
20
137.572270
11
180.738955
21
137.372270
0
LINE
8
boundary
62
5
39
2
10
180.738955
20
137.372270
11
220.958068
21
137.372270
0
LINE
8
boundary
62
5
39
2
10
220.958068
20
137.372270
11
220.958068
21
133.472270
0
LINE
8
boundary
62
5
39
2
10
220.958068
20
133.472270
11
180.738955
21
133.472270
0
LINE
8
boundary
62
5
39
2
10
180.738955
20
133.472270
11
180.593955
21
133.272270
0
LINE
8
boundary
62
5
39
2
10
180.593955
20
133.272270
11
180.593955
21
129.672032
0
LINE
8
boundary
62
5
39
2
10
180.593955
20
129.672032
11
180.593955
21
126.845711
0
LINE
8
boundary
62
5
39
2
10
180.593955
20
126.845711
11
180.593955
21
104.357194
0
LINE
8
boundary
62
5
39
2
10
180.593955
20
104.357194
11
180.593955
21
99.238411
0
LINE
8
boundary
62
5
39
2
10
180.593955
20
99.238411
11
180.593955
21
94.075313
0
LINE
8
boundary
62
5
39
2
10
180.593955
20
94.075313
11
180.738955
21
93.875313
0
LINE
8
boundary
62
5
39
2
10
180.738955
20
93.875313
11
220.958068
21
93.875313
0
LINE
8
boundary
62
5
39
2
10
220.958068
20
93.875313
11
220.958068
21
89.975313
0
LINE
8
boundary
62
5
39
2
10
220.958068
20
89.975313
11
180.738955
21
89.975313
0
LINE
8
boundary
62
5
39
2
10
180.738955
20
89.975313
11
180.593955
21
89.775313
0
LINE
8
boundary
62
5
39
2
10
180.593955
20
89.775313
11
180.593955
21
87.235355
0
LINE
8
boundary
62
5
39
2
10
180.593955
20
87.235355
11
180.593955
21
84.503248
0
LINE
8
boundary
62
5
39
2
10
180.593955
20
84.503248
11
180.593955
21
71.923650
0
LINE
8
boundary
62
5
39
2
10
180.593955
20
71.923650
11
180.593955
21
69.060313
0
LINE
8
boundary
62
5
39
2
10
180.593955
20
69.060313
11
180.593955
21
65.284567
0
LINE
8
boundary
62
5
39
2
10
180.593955
20
65.284567
11
180.593955
21
64.425141
0
LINE
8
boundary
62
5
39
2
10
180.593955
20
64.425141
11
180.593955
21
60.649405
0
LINE
8
boundary
62
5
39
2
10
180.593955
20
60.649405
11
180.593955
21
59.789981
0
LINE
8
boundary
62
5
39
2
10
180.593955
20
59.789981
11
180.593955
21
20.687837
0
LINE
8
annotation
62
1
39
211
10
229.718867
20
88.725313
11
229.718867
21
95.125313
0
LINE
8
annotation
62
1
39
211
10
229.718867
20
95.125313
11
228.296065
21
93.702110
0
LINE
8
annotation
62
1
39
211
10
230.428462
20
132.222218
11
227.586069
21
132.222218
0
LINE
8
annotation
62
1
39
211
10
227.586069
20
132.222218
11
230.212533
21
136.450488
0
LINE
8
annotation
62
1
39
211
10
230.212533
20
136.450488
11
230.212533
21
136.450488
0
LINE
8
annotation
62
1
39
211
10
230.212533
20
136.450488
11
230.215673
21
136.454374
0
LINE
8
annotation
62
1
39
211
10
230.215673
20
136.454374
11
230.218684
21
136.458292
0
LINE
8
annotation
62
1
39
211
10
230.218684
20
136.458292
11
230.221586
21
136.462276
0
LINE
8
annotation
62
1
39
211
10
230.221586
20
136.462276
11
230.224399
21
136.466360
0
LINE
8
annotation
62
1
39
211
10
230.224399
20
136.466360
11
230.227142
21
136.470575
0
LINE
8
annotation
62
1
39
211
10
230.227142
20
136.470575
11
230.229836
21
136.474956
0
LINE
8
annotation
62
1
39
211
10
230.229836
20
136.474956
11
230.232500
21
136.479535
0
LINE
8
annotation
62
1
39
211
10
230.232500
20
136.479535
11
230.235154
21
136.484345
0
LINE
8
annotation
62
1
39
211
10
230.235154
20
136.484345
11
230.237819
21
136.489420
0
LINE
8
annotation
62
1
39
211
10
230.237819
20
136.489420
11
230.237819
21
136.489420
0
LINE
8
annotation
62
1
39
211
10
230.237819
20
136.489420
11
230.346265
21
136.722263
0
LINE
8
annotation
62
1
39
211
10
230.346265
20
136.722263
11
230.409617
21
136.963625
0
LINE
8
annotation
62
1
39
211
10
230.409617
20
136.963625
11
230.429428
21
137.208052
0
LINE
8
annotation
62
1
39
211
10
230.429428
20
137.208052
11
230.407251
21
137.450092
0
LINE
8
annotation
62
1
39
211
10
230.407251
20
137.450092
11
230.344637
21
137.684289
0
LINE
8
annotation
62
1
39
211
10
230.344637
20
137.684289
11
230.243140
21
137.905190
0
LINE
8
annotation
62
1
39
211
10
230.243140
20
137.905190
11
230.104312
21
138.107342
0
LINE
8
annotation
62
1
39
211
10
230.104312
20
138.107342
11
229.929706
21
138.285290
0
LINE
8
annotation
62
1
39
211
10
229.929706
20
138.285290
11
229.720874
21
138.433581
0
LINE
8
annotation
62
1
39
211
10
229.720874
20
138.433581
11
229.720874
21
138.433581
0
LINE
8
annotation
62
1
39
211
10
229.720874
20
138.433581
11
229.487384
21
138.540486
0
LINE
8
annotation
62
1
39
211
10
229.487384
20
138.540486
11
229.245651
21
138.602863
0
LINE
8
annotation
62
1
39
211
10
229.245651
20
138.602863
11
229.001082
21
138.622114
0
LINE
8
annotation
62
1
39
211
10
229.001082
20
138.622114
11
228.759079
21
138.599644
0
LINE
8
annotation
62
1
39
211
10
228.759079
20
138.599644
11
228.525047
21
138.536857
0
LINE
8
annotation
62
1
39
211
10
228.525047
20
138.536857
11
228.304390
21
138.435157
0
LINE
8
annotation
62
1
39
211
10
228.304390
20
138.435157
11
228.102512
21
138.295947
0
LINE
8
annotation
62
1
39
211
10
228.102512
20
138.295947
11
227.924818
21
138.120633
0
LINE
8
annotation
62
1
39
211
10
227.924818
20
138.120633
11
227.776712
21
137.910616
0
LINE
8
annotation
62
1
39
211
10
227.776712
20
137.910616
11
227.590083
21
137.552608
0
LINE
8
annotation
62
1
39
211
10
206.805411
20
120.316994
11
203.676294
21
115.791011
0
LINE
8
annotation
62
1
39
211
10
203.676294
20
115.791011
11
200.546587
21
120.316994
0
LINE
8
annotation
62
1
39
211
10
203.676294
20
116.155232
11
203.676294
21
110.933759
0
LINE
8
annotation
62
1
39
211
10
215.455351
20
115.625377
11
210.325081
21
115.625377
0
LINE
8
annotation
62
1
39
211
10
223.140727
20
110.933977
11
218.973669
21
110.933977
0
LINE
8
annotation
62
1
39
211
10
218.973669
20
110.933977
11
222.824167
21
117.132784
0
LINE
8
annotation
62
1
39
211
10
222.824167
20
117.132784
11
222.824167
21
117.132784
0
LINE
8
annotation
62
1
39
211
10
222.824167
20
117.132784
11
222.828770
21
117.138480
0
LINE
8
annotation
62
1
39
211
10
222.828770
20
117.138480
11
222.833184
21
117.144225
0
LINE
8
annotation
62
1
39
211
10
222.833184
20
117.144225
11
222.837438
21
117.150066
0
LINE
8
annotation
62
1
39
211
10
222.837438
20
117.150066
11
222.841562
21
117.156052
0
LINE
8
annotation
62
1
39
211
10
222.841562
20
117.156052
11
222.845584
21
117.162233
0
LINE
8
annotation
62
1
39
211
10
222.845584
20
117.162233
11
222.849533
21
117.168655
0
LINE
8
annotation
62
1
39
211
10
222.849533
20
117.168655
11
222.853439
21
117.175368
0
LINE
8
annotation
62
1
39
211
10
222.853439
20
117.175368
11
222.857330
21
117.182420
0
LINE
8
annotation
62
1
39
211
10
222.857330
20
117.182420
11
222.861236
21
117.189859
0
LINE
8
annotation
62
1
39
211
10
222.861236
20
117.189859
11
222.861236
21
117.189859
0
LINE
8
annotation
62
1
39
211
10
222.861236
20
117.189859
11
223.020222
21
117.531216
0
LINE
8
annotation
62
1
39
211
10
223.020222
20
117.531216
11
223.113099
21
117.885062
0
LINE
8
annotation
62
1
39
211
10
223.113099
20
117.885062
11
223.142143
21
118.243402
0
LINE
8
annotation
62
1
39
211
10
223.142143
20
118.243402
11
223.109630
21
118.598242
0
LINE
8
annotation
62
1
39
211
10
223.109630
20
118.598242
11
223.017836
21
118.941584
0
LINE
8
annotation
62
1
39
211
10
223.017836
20
118.941584
11
222.869038
21
119.265434
0
LINE
8
annotation
62
1
39
211
10
222.869038
20
119.265434
11
222.665511
21
119.561796
0
LINE
8
annotation
62
1
39
211
10
222.665511
20
119.561796
11
222.409531
21
119.822675
0
LINE
8
annotation
62
1
39
211
10
222.409531
20
119.822675
11
222.103375
21
120.040075
0
LINE
8
annotation
62
1
39
211
10
222.103375
20
120.040075
11
222.103375
21
120.040075
0
LINE
8
annotation
62
1
39
211
10
222.103375
20
120.040075
11
221.761069
21
120.196802
0
LINE
8
annotation
62
1
39
211
10
221.761069
20
120.196802
11
221.406681
21
120.288248
0
LINE
8
annotation
62
1
39
211
10
221.406681
20
120.288248
11
221.048132
21
120.316471
0
LINE
8
annotation
62
1
39
211
10
221.048132
20
120.316471
11
220.693346
21
120.283529
0
LINE
8
annotation
62
1
39
211
10
220.693346
20
120.283529
11
220.350246
21
120.191481
0
LINE
8
annotation
62
1
39
211
10
220.350246
20
120.191481
11
220.026755
21
120.042385
0
LINE
8
annotation
62
1
39
211
10
220.026755
20
120.042385
11
219.730794
21
119.838298
0
LINE
8
annotation
62
1
39
211
10
219.730794
20
119.838298
11
219.470288
21
119.581280
0
LINE
8
annotation
62
1
39
211
10
219.470288
20
119.581280
11
219.253160
21
119.273388
0
LINE
8
annotation
62
1
39
211
10
219.253160
20
119.273388
11
218.979553
21
118.748534
0
LINE
8
annotation
62
1
39
211
10
231.791080
20
115.625377
11
226.660810
21
115.625377
0
LINE
8
annotation
62
1
39
211
10
237.394866
20
110.934053
11
237.394866
21
120.316700
0
LINE
8
annotation
62
1
39
211
10
237.394866
20
120.316700
11
235.308984
21
118.230229
0
LINE
8
boundary
62
5
39
2
10
180.593955
20
146.286401
11
180.593955
21
145.664001
0
LINE
8
boundary
62
5
39
2
10
180.593955
20
145.664001
11
184.239377
21
145.664001
0
LINE
8
boundary
62
5
39
2
10
184.239377
20
145.664001
11
185.561118
21
145.664001
0
LINE
8
boundary
62
5
39
2
10
185.561118
20
145.664001
11
185.561118
21
147.380611
0
LINE
8
boundary
62
5
39
2
10
185.561118
20
147.380611
11
185.561118
21
148.003011
0
LINE
8
boundary
62
5
39
2
10
185.561118
20
148.003011
11
181.915695
21
148.003011
0
LINE
8
boundary
62
5
39
2
10
181.915695
20
148.003011
11
180.593955
21
148.003011
0
LINE
8
boundary
62
5
39
2
10
180.593955
20
148.003011
11
180.593955
21
146.286401
0
LINE
8
annotation
62
1
39
211
10
182.148288
20
147.113580
11
181.909721
21
146.768514
0
LINE
8
annotation
62
1
39
211
10
181.909721
20
146.768514
11
181.671108
21
147.113580
0
LINE
8
annotation
62
1
39
211
10
181.909721
20
146.796283
11
181.909721
21
146.398192
0
LINE
8
annotation
62
1
39
211
10
182.807769
20
146.755886
11
182.416631
21
146.755886
0
LINE
8
annotation
62
1
39
211
10
183.075955
20
146.398237
11
183.234805
21
146.398237
0
LINE
8
annotation
62
1
39
211
10
183.234805
20
146.398237
11
183.234805
21
146.398237
0
LINE
8
annotation
62
1
39
211
10
183.234805
20
146.398237
11
183.263375
21
146.400800
0
LINE
8
annotation
62
1
39
211
10
183.263375
20
146.400800
11
183.290258
21
146.408186
0
LINE
8
annotation
62
1
39
211
10
183.290258
20
146.408186
11
183.315007
21
146.419943
0
LINE
8
annotation
62
1
39
211
10
183.315007
20
146.419943
11
183.337176
21
146.435616
0
LINE
8
annotation
62
1
39
211
10
183.337176
20
146.435616
11
183.356316
21
146.454753
0
LINE
8
annotation
62
1
39
211
10
183.356316
20
146.454753
11
183.371982
21
146.476899
0
LINE
8
annotation
62
1
39
211
10
183.371982
20
146.476899
11
183.383725
21
146.501602
0
LINE
8
annotation
62
1
39
211
10
183.383725
20
146.501602
11
183.391099
21
146.528408
0
LINE
8
annotation
62
1
39
211
10
183.391099
20
146.528408
11
183.393656
21
146.556863
0
LINE
8
annotation
62
1
39
211
10
183.393656
20
146.556863
11
183.393656
21
146.636401
0
LINE
8
annotation
62
1
39
211
10
183.393656
20
146.636401
11
183.393656
21
146.636401
0
LINE
8
annotation
62
1
39
211
10
183.393656
20
146.636401
11
183.391099
21
146.664844
0
LINE
8
annotation
62
1
39
211
10
183.391099
20
146.664844
11
183.383725
21
146.691644
0
LINE
8
annotation
62
1
39
211
10
183.383725
20
146.691644
11
183.371982
21
146.716345
0
LINE
8
annotation
62
1
39
211
10
183.371982
20
146.716345
11
183.356316
21
146.738493
0
LINE
8
annotation
62
1
39
211
10
183.356316
20
146.738493
11
183.337176
21
146.757633
0
LINE
8
annotation
62
1
39
211
10
183.337176
20
146.757633
11
183.315007
21
146.773311
0
LINE
8
annotation
62
1
39
211
10
183.315007
20
146.773311
11
183.290258
21
146.785072
0
LINE
8
annotation
62
1
39
211
10
183.290258
20
146.785072
11
183.263375
21
146.792462
0
LINE
8
annotation
62
1
39
211
10
183.263375
20
146.792462
11
183.234805
21
146.795027
0
LINE
8
annotation
62
1
39
211
10
183.234805
20
146.795027
11
183.155268
21
146.795027
0
LINE
8
annotation
62
1
39
211
10
183.155268
20
146.795027
11
183.234805
21
146.795027
0
LINE
8
annotation
62
1
39
211
10
183.234805
20
146.795027
11
183.234805
21
146.795027
0
LINE
8
annotation
62
1
39
211
10
183.234805
20
146.795027
11
183.263375
21
146.797592
0
LINE
8
annotation
62
1
39
211
10
183.263375
20
146.797592
11
183.290258
21
146.804986
0
LINE
8
annotation
62
1
39
211
10
183.290258
20
146.804986
11
183.315007
21
146.816759
0
LINE
8
annotation
62
1
39
211
10
183.315007
20
146.816759
11
183.337176
21
146.832460
0
LINE
8
annotation
62
1
39
211
10
183.337176
20
146.832460
11
183.356316
21
146.851638
0
LINE
8
annotation
62
1
39
211
10
183.356316
20
146.851638
11
183.371982
21
146.873841
0
LINE
8
annotation
62
1
39
211
10
183.371982
20
146.873841
11
183.383725
21
146.898621
0
LINE
8
annotation
62
1
39
211
10
183.383725
20
146.898621
11
183.391099
21
146.925524
0
LINE
8
annotation
62
1
39
211
10
183.391099
20
146.925524
11
183.393656
21
146.954102
0
LINE
8
annotation
62
1
39
211
10
183.393656
20
146.954102
11
183.393656
21
146.954102
0
LINE
8
annotation
62
1
39
211
10
183.393656
20
146.954102
11
183.391099
21
146.982545
0
LINE
8
annotation
62
1
39
211
10
183.391099
20
146.982545
11
183.383725
21
147.009345
0
LINE
8
annotation
62
1
39
211
10
183.383725
20
147.009345
11
183.371982
21
147.034046
0
LINE
8
annotation
62
1
39
211
10
183.371982
20
147.034046
11
183.356316
21
147.056194
0
LINE
8
annotation
62
1
39
211
10
183.356316
20
147.056194
11
183.337176
21
147.075334
0
LINE
8
annotation
62
1
39
211
10
183.337176
20
147.075334
11
183.315007
21
147.091012
0
LINE
8
annotation
62
1
39
211
10
183.315007
20
147.091012
11
183.290258
21
147.102773
0
LINE
8
annotation
62
1
39
211
10
183.290258
20
147.102773
11
183.263375
21
147.110163
0
LINE
8
annotation
62
1
39
211
10
183.263375
20
147.110163
11
183.234805
21
147.112728
0
LINE
8
annotation
62
1
39
211
10
183.234805
20
147.112728
11
183.075955
21
147.112728
0
LINE
8
annotation
62
1
39
211
10
184.053114
20
146.755886
11
183.661977
21
146.755886
0
LINE
8
annotation
62
1
39
211
10
184.321300
20
146.398237
11
184.480151
21
146.398237
0
LINE
8
annotation
62
1
39
211
10
184.480151
20
146.398237
11
184.480151
21
146.398237
0
LINE
8
annotation
62
1
39
211
10
184.480151
20
146.398237
11
184.508721
21
146.400800
0
LINE
8
annotation
62
1
39
211
10
184.508721
20
146.400800
11
184.535604
21
146.408186
0
LINE
8
annotation
62
1
39
211
10
184.535604
20
146.408186
11
184.560353
21
146.419943
0
LINE
8
annotation
62
1
39
211
10
184.560353
20
146.419943
11
184.582521
21
146.435616
0
LINE
8
annotation
62
1
39
211
10
184.582521
20
146.435616
11
184.601662
21
146.454753
0
LINE
8
annotation
62
1
39
211
10
184.601662
20
146.454753
11
184.617327
21
146.476899
0
LINE
8
annotation
62
1
39
211
10
184.617327
20
146.476899
11
184.629070
21
146.501602
0
LINE
8
annotation
62
1
39
211
10
184.629070
20
146.501602
11
184.636444
21
146.528408
0
LINE
8
annotation
62
1
39
211
10
184.636444
20
146.528408
11
184.639001
21
146.556863
0
LINE
8
annotation
62
1
39
211
10
184.639001
20
146.556863
11
184.639001
21
146.636401
0
LINE
8
annotation
62
1
39
211
10
184.639001
20
146.636401
11
184.639001
21
146.636401
0
LINE
8
annotation
62
1
39
211
10
184.639001
20
146.636401
11
184.636444
21
146.664844
0
LINE
8
annotation
62
1
39
211
10
184.636444
20
146.664844
11
184.629070
21
146.691644
0
LINE
8
annotation
62
1
39
211
10
184.629070
20
146.691644
11
184.617327
21
146.716345
0
LINE
8
annotation
62
1
39
211
10
184.617327
20
146.716345
11
184.601662
21
146.738493
0
LINE
8
annotation
62
1
39
211
10
184.601662
20
146.738493
11
184.582521
21
146.757633
0
LINE
8
annotation
62
1
39
211
10
184.582521
20
146.757633
11
184.560353
21
146.773311
0
LINE
8
annotation
62
1
39
211
10
184.560353
20
146.773311
11
184.535604
21
146.785072
0
LINE
8
annotation
62
1
39
211
10
184.535604
20
146.785072
11
184.508721
21
146.792462
0
LINE
8
annotation
62
1
39
211
10
184.508721
20
146.792462
11
184.480151
21
146.795027
0
LINE
8
annotation
62
1
39
211
10
184.480151
20
146.795027
11
184.400614
21
146.795027
0
LINE
8
annotation
62
1
39
211
10
184.400614
20
146.795027
11
184.480151
21
146.795027
0
LINE
8
annotation
62
1
39
211
10
184.480151
20
146.795027
11
184.480151
21
146.795027
0
LINE
8
annotation
62
1
39
211
10
184.480151
20
146.795027
11
184.508721
21
146.797592
0
LINE
8
annotation
62
1
39
211
10
184.508721
20
146.797592
11
184.535604
21
146.804986
0
LINE
8
annotation
62
1
39
211
10
184.535604
20
146.804986
11
184.560353
21
146.816759
0
LINE
8
annotation
62
1
39
211
10
184.560353
20
146.816759
11
184.582521
21
146.832460
0
LINE
8
annotation
62
1
39
211
10
184.582521
20
146.832460
11
184.601662
21
146.851638
0
LINE
8
annotation
62
1
39
211
10
184.601662
20
146.851638
11
184.617327
21
146.873841
0
LINE
8
annotation
62
1
39
211
10
184.617327
20
146.873841
11
184.629070
21
146.898621
0
LINE
8
annotation
62
1
39
211
10
184.629070
20
146.898621
11
184.636444
21
146.925524
0
LINE
8
annotation
62
1
39
211
10
184.636444
20
146.925524
11
184.639001
21
146.954102
0
LINE
8
annotation
62
1
39
211
10
184.639001
20
146.954102
11
184.639001
21
146.954102
0
LINE
8
annotation
62
1
39
211
10
184.639001
20
146.954102
11
184.636444
21
146.982545
0
LINE
8
annotation
62
1
39
211
10
184.636444
20
146.982545
11
184.629070
21
147.009345
0
LINE
8
annotation
62
1
39
211
10
184.629070
20
147.009345
11
184.617327
21
147.034046
0
LINE
8
annotation
62
1
39
211
10
184.617327
20
147.034046
11
184.601662
21
147.056194
0
LINE
8
annotation
62
1
39
211
10
184.601662
20
147.056194
11
184.582521
21
147.075334
0
LINE
8
annotation
62
1
39
211
10
184.582521
20
147.075334
11
184.560353
21
147.091012
0
LINE
8
annotation
62
1
39
211
10
184.560353
20
147.091012
11
184.535604
21
147.102773
0
LINE
8
annotation
62
1
39
211
10
184.535604
20
147.102773
11
184.508721
21
147.110163
0
LINE
8
annotation
62
1
39
211
10
184.508721
20
147.110163
11
184.480151
21
147.112728
0
LINE
8
annotation
62
1
39
211
10
184.480151
20
147.112728
11
184.321300
21
147.112728
0
LINE
8
boundary
62
5
39
2
10
184.250383
20
153.917022
11
180.593955
21
153.917022
0
LINE
8
boundary
62
5
39
2
10
180.593955
20
153.917022
11
180.593955
21
153.299804
0
LINE
8
boundary
62
5
39
2
10
180.593955
20
153.299804
11
180.593955
21
151.578011
0
LINE
8
boundary
62
5
39
2
10
180.593955
20
151.578011
11
181.904689
21
151.578011
0
LINE
8
boundary
62
5
39
2
10
181.904689
20
151.578011
11
185.561117
21
151.578011
0
LINE
8
boundary
62
5
39
2
10
185.561117
20
151.578011
11
185.561117
21
152.195229
0
LINE
8
boundary
62
5
39
2
10
185.561117
20
152.195229
11
185.561118
21
153.917022
0
LINE
8
boundary
62
5
39
2
10
185.561118
20
153.917022
11
184.250383
21
153.917022
0
LINE
8
annotation
62
1
39
211
10
181.992995
20
153.182830
11
181.754427
21
152.837764
0
LINE
8
annotation
62
1
39
211
10
181.754427
20
152.837764
11
181.515815
21
153.182830
0
LINE
8
annotation
62
1
39
211
10
181.754427
20
152.865533
11
181.754427
21
152.467442
0
LINE
8
annotation
62
1
39
211
10
182.652475
20
152.825136
11
182.261338
21
152.825136
0
LINE
8
annotation
62
1
39
211
10
183.238416
20
152.467459
11
182.920716
21
152.467459
0
LINE
8
annotation
62
1
39
211
10
182.920716
20
152.467459
11
183.214282
21
152.940063
0
LINE
8
annotation
62
1
39
211
10
183.214282
20
152.940063
11
183.214282
21
152.940063
0
LINE
8
annotation
62
1
39
211
10
183.214282
20
152.940063
11
183.214633
21
152.940497
0
LINE
8
annotation
62
1
39
211
10
183.214633
20
152.940497
11
183.214969
21
152.940935
0
LINE
8
annotation
62
1
39
211
10
183.214969
20
152.940935
11
183.215293
21
152.941380
0
LINE
8
annotation
62
1
39
211
10
183.215293
20
152.941380
11
183.215608
21
152.941837
0
LINE
8
annotation
62
1
39
211
10
183.215608
20
152.941837
11
183.215914
21
152.942308
0
LINE
8
annotation
62
1
39
211
10
183.215914
20
152.942308
11
183.216216
21
152.942797
0
LINE
8
annotation
62
1
39
211
10
183.216216
20
152.942797
11
183.216513
21
152.943309
0
LINE
8
annotation
62
1
39
211
10
183.216513
20
152.943309
11
183.216810
21
152.943847
0
LINE
8
annotation
62
1
39
211
10
183.216810
20
152.943847
11
183.217108
21
152.944414
0
LINE
8
annotation
62
1
39
211
10
183.217108
20
152.944414
11
183.217108
21
152.944414
0
LINE
8
annotation
62
1
39
211
10
183.217108
20
152.944414
11
183.229229
21
152.970440
0
LINE
8
annotation
62
1
39
211
10
183.229229
20
152.970440
11
183.236310
21
152.997417
0
LINE
8
annotation
62
1
39
211
10
183.236310
20
152.997417
11
183.238524
21
153.024737
0
LINE
8
annotation
62
1
39
211
10
183.238524
20
153.024737
11
183.236046
21
153.051791
0
LINE
8
annotation
62
1
39
211
10
183.236046
20
153.051791
11
183.229047
21
153.077967
0
LINE
8
annotation
62
1
39
211
10
183.229047
20
153.077967
11
183.217703
21
153.102658
0
LINE
8
annotation
62
1
39
211
10
183.217703
20
153.102658
11
183.202185
21
153.125253
0
LINE
8
annotation
62
1
39
211
10
183.202185
20
153.125253
11
183.182669
21
153.145143
0
LINE
8
annotation
62
1
39
211
10
183.182669
20
153.145143
11
183.159328
21
153.161718
0
LINE
8
annotation
62
1
39
211
10
183.159328
20
153.161718
11
183.159328
21
153.161718
0
LINE
8
annotation
62
1
39
211
10
183.159328
20
153.161718
11
183.133230
21
153.173667
0
LINE
8
annotation
62
1
39
211
10
183.133230
20
153.173667
11
183.106211
21
153.180639
0
LINE
8
annotation
62
1
39
211
10
183.106211
20
153.180639
11
183.078875
21
153.182790
0
LINE
8
annotation
62
1
39
211
10
183.078875
20
153.182790
11
183.051826
21
153.180279
0
LINE
8
annotation
62
1
39
211
10
183.051826
20
153.180279
11
183.025667
21
153.173261
0
LINE
8
annotation
62
1
39
211
10
183.025667
20
153.173261
11
183.001004
21
153.161894
0
LINE
8
annotation
62
1
39
211
10
183.001004
20
153.161894
11
182.978440
21
153.146334
0
LINE
8
annotation
62
1
39
211
10
182.978440
20
153.146334
11
182.958578
21
153.126739
0
LINE
8
annotation
62
1
39
211
10
182.958578
20
153.126739
11
182.942024
21
153.103265
0
LINE
8
annotation
62
1
39
211
10
182.942024
20
153.103265
11
182.921164
21
153.063249
0
LINE
8
annotation
62
1
39
211
10
183.897929
20
152.825136
11
183.506791
21
152.825136
0
LINE
8
annotation
62
1
39
211
10
184.166115
20
152.467487
11
184.324965
21
152.467487
0
LINE
8
annotation
62
1
39
211
10
184.324965
20
152.467487
11
184.324965
21
152.467487
0
LINE
8
annotation
62
1
39
211
10
184.324965
20
152.467487
11
184.353535
21
152.470050
0
LINE
8
annotation
62
1
39
211
10
184.353535
20
152.470050
11
184.380418
21
152.477436
0
LINE
8
annotation
62
1
39
211
10
184.380418
20
152.477436
11
184.405167
21
152.489193
0
LINE
8
annotation
62
1
39
211
10
184.405167
20
152.489193
11
184.427336
21
152.504866
0
LINE
8
annotation
62
1
39
211
10
184.427336
20
152.504866
11
184.446476
21
152.524003
0
LINE
8
annotation
62
1
39
211
10
184.446476
20
152.524003
11
184.462142
21
152.546149
0
LINE
8
annotation
62
1
39
211
10
184.462142
20
152.546149
11
184.473885
21
152.570852
0
LINE
8
annotation
62
1
39
211
10
184.473885
20
152.570852
11
184.481259
21
152.597658
0
LINE
8
annotation
62
1
39
211
10
184.481259
20
152.597658
11
184.483816
21
152.626113
0
LINE
8
annotation
62
1
39
211
10
184.483816
20
152.626113
11
184.483816
21
152.705651
0
LINE
8
annotation
62
1
39
211
10
184.483816
20
152.705651
11
184.483816
21
152.705651
0
LINE
8
annotation
62
1
39
211
10
184.483816
20
152.705651
11
184.481259
21
152.734095
0
LINE
8
annotation
62
1
39
211
10
184.481259
20
152.734095
11
184.473885
21
152.760894
0
LINE
8
annotation
62
1
39
211
10
184.473885
20
152.760894
11
184.462142
21
152.785595
0
LINE
8
annotation
62
1
39
211
10
184.462142
20
152.785595
11
184.446476
21
152.807743
0
LINE
8
annotation
62
1
39
211
10
184.446476
20
152.807743
11
184.427336
21
152.826883
0
LINE
8
annotation
62
1
39
211
10
184.427336
20
152.826883
11
184.405167
21
152.842561
0
LINE
8
annotation
62
1
39
211
10
184.405167
20
152.842561
11
184.380418
21
152.854322
0
LINE
8
annotation
62
1
39
211
10
184.380418
20
152.854322
11
184.353535
21
152.861713
0
LINE
8
annotation
62
1
39
211
10
184.353535
20
152.861713
11
184.324965
21
152.864277
0
LINE
8
annotation
62
1
39
211
10
184.324965
20
152.864277
11
184.245428
21
152.864277
0
LINE
8
annotation
62
1
39
211
10
184.245428
20
152.864277
11
184.324965
21
152.864277
0
LINE
8
annotation
62
1
39
211
10
184.324965
20
152.864277
11
184.324965
21
152.864277
0
LINE
8
annotation
62
1
39
211
10
184.324965
20
152.864277
11
184.353535
21
152.866842
0
LINE
8
annotation
62
1
39
211
10
184.353535
20
152.866842
11
184.380418
21
152.874236
0
LINE
8
annotation
62
1
39
211
10
184.380418
20
152.874236
11
184.405167
21
152.886009
0
LINE
8
annotation
62
1
39
211
10
184.405167
20
152.886009
11
184.427336
21
152.901710
0
LINE
8
annotation
62
1
39
211
10
184.427336
20
152.901710
11
184.446476
21
152.920888
0
LINE
8
annotation
62
1
39
211
10
184.446476
20
152.920888
11
184.462142
21
152.943092
0
LINE
8
annotation
62
1
39
211
10
184.462142
20
152.943092
11
184.473885
21
152.967871
0
LINE
8
annotation
62
1
39
211
10
184.473885
20
152.967871
11
184.481259
21
152.994774
0
LINE
8
annotation
62
1
39
211
10
184.481259
20
152.994774
11
184.483816
21
153.023352
0
LINE
8
annotation
62
1
39
211
10
184.483816
20
153.023352
11
184.483816
21
153.023352
0
LINE
8
annotation
62
1
39
211
10
184.483816
20
153.023352
11
184.481259
21
153.051795
0
LINE
8
annotation
62
1
39
211
10
184.481259
20
153.051795
11
184.473885
21
153.078595
0
LINE
8
annotation
62
1
39
211
10
184.473885
20
153.078595
11
184.462142
21
153.103296
0
LINE
8
annotation
62
1
39
211
10
184.462142
20
153.103296
11
184.446476
21
153.125444
0
LINE
8
annotation
62
1
39
211
10
184.446476
20
153.125444
11
184.427336
21
153.144584
0
LINE
8
annotation
62
1
39
211
10
184.427336
20
153.144584
11
184.405167
21
153.160262
0
LINE
8
annotation
62
1
39
211
10
184.405167
20
153.160262
11
184.380418
21
153.172023
0
LINE
8
annotation
62
1
39
211
10
184.380418
20
153.172023
11
184.353535
21
153.179413
0
LINE
8
annotation
62
1
39
211
10
184.353535
20
153.179413
11
184.324965
21
153.181978
0
LINE
8
annotation
62
1
39
211
10
184.324965
20
153.181978
11
184.166115
21
153.181978
0
LINE
8
boundary
62
5
39
2
10
184.250377
20
159.831033
11
180.593955
21
159.831032
0
LINE
8
boundary
62
5
39
2
10
180.593955
20
159.831032
11
180.593955
21
159.213815
0
LINE
8
boundary
62
5
39
2
10
180.593955
20
159.213815
11
180.593955
21
157.492022
0
LINE
8
boundary
62
5
39
2
10
180.593955
20
157.492022
11
181.904687
21
157.492022
0
LINE
8
boundary
62
5
39
2
10
181.904687
20
157.492022
11
185.561108
21
157.492022
0
LINE
8
boundary
62
5
39
2
10
185.561108
20
157.492022
11
185.561109
21
158.109240
0
LINE
8
boundary
62
5
39
2
10
185.561109
20
158.109240
11
185.561109
21
159.831033
0
LINE
8
boundary
62
5
39
2
10
185.561109
20
159.831033
11
184.250377
21
159.831033
0
LINE
8
annotation
62
1
39
211
10
181.992938
20
158.941601
11
181.754371
21
158.596536
0
LINE
8
annotation
62
1
39
211
10
181.754371
20
158.596536
11
181.515759
21
158.941601
0
LINE
8
annotation
62
1
39
211
10
181.754371
20
158.624304
11
181.754371
21
158.226215
0
LINE
8
annotation
62
1
39
211
10
182.652417
20
158.583908
11
182.261281
21
158.583908
0
LINE
8
annotation
62
1
39
211
10
183.238358
20
158.226231
11
182.920657
21
158.226231
0
LINE
8
annotation
62
1
39
211
10
182.920657
20
158.226231
11
183.214223
21
158.698834
0
LINE
8
annotation
62
1
39
211
10
183.214223
20
158.698834
11
183.214223
21
158.698834
0
LINE
8
annotation
62
1
39
211
10
183.214223
20
158.698834
11
183.214574
21
158.699268
0
LINE
8
annotation
62
1
39
211
10
183.214574
20
158.699268
11
183.214910
21
158.699706
0
LINE
8
annotation
62
1
39
211
10
183.214910
20
158.699706
11
183.215235
21
158.700152
0
LINE
8
annotation
62
1
39
211
10
183.215235
20
158.700152
11
183.215549
21
158.700608
0
LINE
8
annotation
62
1
39
211
10
183.215549
20
158.700608
11
183.215856
21
158.701079
0
LINE
8
annotation
62
1
39
211
10
183.215856
20
158.701079
11
183.216157
21
158.701569
0
LINE
8
annotation
62
1
39
211
10
183.216157
20
158.701569
11
183.216455
21
158.702081
0
LINE
8
annotation
62
1
39
211
10
183.216455
20
158.702081
11
183.216751
21
158.702618
0
LINE
8
annotation
62
1
39
211
10
183.216751
20
158.702618
11
183.217049
21
158.703185
0
LINE
8
annotation
62
1
39
211
10
183.217049
20
158.703185
11
183.217049
21
158.703185
0
LINE
8
annotation
62
1
39
211
10
183.217049
20
158.703185
11
183.229170
21
158.729211
0
LINE
8
annotation
62
1
39
211
10
183.229170
20
158.729211
11
183.236251
21
158.756188
0
LINE
8
annotation
62
1
39
211
10
183.236251
20
158.756188
11
183.238466
21
158.783509
0
LINE
8
annotation
62
1
39
211
10
183.238466
20
158.783509
11
183.235987
21
158.810562
0
LINE
8
annotation
62
1
39
211
10
183.235987
20
158.810562
11
183.228988
21
158.836739
0
LINE
8
annotation
62
1
39
211
10
183.228988
20
158.836739
11
183.217644
21
158.861429
0
LINE
8
annotation
62
1
39
211
10
183.217644
20
158.861429
11
183.202127
21
158.884024
0
LINE
8
annotation
62
1
39
211
10
183.202127
20
158.884024
11
183.182611
21
158.903914
0
LINE
8
annotation
62
1
39
211
10
183.182611
20
158.903914
11
183.159269
21
158.920488
0
LINE
8
annotation
62
1
39
211
10
183.159269
20
158.920488
11
183.159269
21
158.920488
0
LINE
8
annotation
62
1
39
211
10
183.159269
20
158.920488
11
183.133171
21
158.932438
0
LINE
8
annotation
62
1
39
211
10
183.133171
20
158.932438
11
183.106152
21
158.939409
0
LINE
8
annotation
62
1
39
211
10
183.106152
20
158.939409
11
183.078816
21
158.941561
0
LINE
8
annotation
62
1
39
211
10
183.078816
20
158.941561
11
183.051767
21
158.939050
0
LINE
8
annotation
62
1
39
211
10
183.051767
20
158.939050
11
183.025609
21
158.932032
0
LINE
8
annotation
62
1
39
211
10
183.025609
20
158.932032
11
183.000946
21
158.920665
0
LINE
8
annotation
62
1
39
211
10
183.000946
20
158.920665
11
182.978381
21
158.905105
0
LINE
8
annotation
62
1
39
211
10
182.978381
20
158.905105
11
182.958520
21
158.885510
0
LINE
8
annotation
62
1
39
211
10
182.958520
20
158.885510
11
182.941966
21
158.862036
0
LINE
8
annotation
62
1
39
211
10
182.941966
20
158.862036
11
182.921106
21
158.822020
0
LINE
8
annotation
62
1
39
211
10
183.897869
20
158.583908
11
183.506732
21
158.583908
0
LINE
8
annotation
62
1
39
211
10
184.483809
20
158.226231
11
184.166109
21
158.226231
0
LINE
8
annotation
62
1
39
211
10
184.166109
20
158.226231
11
184.459674
21
158.698834
0
LINE
8
annotation
62
1
39
211
10
184.459674
20
158.698834
11
184.459674
21
158.698834
0
LINE
8
annotation
62
1
39
211
10
184.459674
20
158.698834
11
184.460025
21
158.699268
0
LINE
8
annotation
62
1
39
211
10
184.460025
20
158.699268
11
184.460362
21
158.699706
0
LINE
8
annotation
62
1
39
211
10
184.460362
20
158.699706
11
184.460686
21
158.700152
0
LINE
8
annotation
62
1
39
211
10
184.460686
20
158.700152
11
184.461000
21
158.700608
0
LINE
8
annotation
62
1
39
211
10
184.461000
20
158.700608
11
184.461307
21
158.701079
0
LINE
8
annotation
62
1
39
211
10
184.461307
20
158.701079
11
184.461608
21
158.701569
0
LINE
8
annotation
62
1
39
211
10
184.461608
20
158.701569
11
184.461906
21
158.702081
0
LINE
8
annotation
62
1
39
211
10
184.461906
20
158.702081
11
184.462202
21
158.702618
0
LINE
8
annotation
62
1
39
211
10
184.462202
20
158.702618
11
184.462500
21
158.703185
0
LINE
8
annotation
62
1
39
211
10
184.462500
20
158.703185
11
184.462500
21
158.703185
0
LINE
8
annotation
62
1
39
211
10
184.462500
20
158.703185
11
184.474622
21
158.729211
0
LINE
8
annotation
62
1
39
211
10
184.474622
20
158.729211
11
184.481703
21
158.756188
0
LINE
8
annotation
62
1
39
211
10
184.481703
20
158.756188
11
184.483917
21
158.783509
0
LINE
8
annotation
62
1
39
211
10
184.483917
20
158.783509
11
184.481438
21
158.810562
0
LINE
8
annotation
62
1
39
211
10
184.481438
20
158.810562
11
184.474440
21
158.836739
0
LINE
8
annotation
62
1
39
211
10
184.474440
20
158.836739
11
184.463095
21
158.861429
0
LINE
8
annotation
62
1
39
211
10
184.463095
20
158.861429
11
184.447578
21
158.884024
0
LINE
8
annotation
62
1
39
211
10
184.447578
20
158.884024
11
184.428062
21
158.903914
0
LINE
8
annotation
62
1
39
211
10
184.428062
20
158.903914
11
184.404720
21
158.920488
0
LINE
8
annotation
62
1
39
211
10
184.404720
20
158.920488
11
184.404720
21
158.920488
0
LINE
8
annotation
62
1
39
211
10
184.404720
20
158.920488
11
184.378623
21
158.932438
0
LINE
8
annotation
62
1
39
211
10
184.378623
20
158.932438
11
184.351604
21
158.939409
0
LINE
8
annotation
62
1
39
211
10
184.351604
20
158.939409
11
184.324268
21
158.941561
0
LINE
8
annotation
62
1
39
211
10
184.324268
20
158.941561
11
184.297218
21
158.939050
0
LINE
8
annotation
62
1
39
211
10
184.297218
20
158.939050
11
184.271060
21
158.932032
0
LINE
8
annotation
62
1
39
211
10
184.271060
20
158.932032
11
184.246397
21
158.920665
0
LINE
8
annotation
62
1
39
211
10
184.246397
20
158.920665
11
184.223832
21
158.905105
0
LINE
8
annotation
62
1
39
211
10
184.223832
20
158.905105
11
184.203971
21
158.885510
0
LINE
8
annotation
62
1
39
211
10
184.203971
20
158.885510
11
184.187417
21
158.862036
0
LINE
8
annotation
62
1
39
211
10
184.187417
20
158.862036
11
184.166557
21
158.822020
0
LINE
8
boundary
62
5
39
2
10
189.136118
20
146.286401
11
189.136118
21
145.664001
0
LINE
8
boundary
62
5
39
2
10
189.136118
20
145.664001
11
192.781533
21
145.664001
0
LINE
8
boundary
62
5
39
2
10
192.781533
20
145.664001
11
194.103272
21
145.664001
0
LINE
8
boundary
62
5
39
2
10
194.103272
20
145.664001
11
194.103272
21
147.380610
0
LINE
8
boundary
62
5
39
2
10
194.103272
20
147.380610
11
194.103272
21
148.003011
0
LINE
8
boundary
62
5
39
2
10
194.103272
20
148.003011
11
190.457856
21
148.003011
0
LINE
8
boundary
62
5
39
2
10
190.457856
20
148.003011
11
189.136118
21
148.003011
0
LINE
8
boundary
62
5
39
2
10
189.136118
20
148.003011
11
189.136118
21
146.286401
0
LINE
8
annotation
62
1
39
211
10
190.690394
20
147.268819
11
190.451827
21
146.923754
0
LINE
8
annotation
62
1
39
211
10
190.451827
20
146.923754
11
190.213216
21
147.268819
0
LINE
8
annotation
62
1
39
211
10
190.451827
20
146.951522
11
190.451827
21
146.553432
0
LINE
8
annotation
62
1
39
211
10
191.349874
20
146.911125
11
190.958737
21
146.911125
0
LINE
8
annotation
62
1
39
211
10
191.618060
20
146.553477
11
191.776910
21
146.553477
0
LINE
8
annotation
62
1
39
211
10
191.776910
20
146.553477
11
191.776910
21
146.553477
0
LINE
8
annotation
62
1
39
211
10
191.776910
20
146.553477
11
191.805479
21
146.556040
0
LINE
8
annotation
62
1
39
211
10
191.805479
20
146.556040
11
191.832362
21
146.563426
0
LINE
8
annotation
62
1
39
211
10
191.832362
20
146.563426
11
191.857112
21
146.575183
0
LINE
8
annotation
62
1
39
211
10
191.857112
20
146.575183
11
191.879280
21
146.590856
0
LINE
8
annotation
62
1
39
211
10
191.879280
20
146.590856
11
191.898420
21
146.609992
0
LINE
8
annotation
62
1
39
211
10
191.898420
20
146.609992
11
191.914086
21
146.632139
0
LINE
8
annotation
62
1
39
211
10
191.914086
20
146.632139
11
191.925829
21
146.656841
0
LINE
8
annotation
62
1
39
211
10
191.925829
20
146.656841
11
191.933203
21
146.683647
0
LINE
8
annotation
62
1
39
211
10
191.933203
20
146.683647
11
191.935760
21
146.712103
0
LINE
8
annotation
62
1
39
211
10
191.935760
20
146.712103
11
191.935760
21
146.791640
0
LINE
8
annotation
62
1
39
211
10
191.935760
20
146.791640
11
191.935760
21
146.791640
0
LINE
8
annotation
62
1
39
211
10
191.935760
20
146.791640
11
191.933203
21
146.820084
0
LINE
8
annotation
62
1
39
211
10
191.933203
20
146.820084
11
191.925829
21
146.846883
0
LINE
8
annotation
62
1
39
211
10
191.925829
20
146.846883
11
191.914086
21
146.871584
0
LINE
8
annotation
62
1
39
211
10
191.914086
20
146.871584
11
191.898420
21
146.893732
0
LINE
8
annotation
62
1
39
211
10
191.898420
20
146.893732
11
191.879280
21
146.912872
0
LINE
8
annotation
62
1
39
211
10
191.879280
20
146.912872
11
191.857112
21
146.928550
0
LINE
8
annotation
62
1
39
211
10
191.857112
20
146.928550
11
191.832362
21
146.940312
0
LINE
8
annotation
62
1
39
211
10
191.832362
20
146.940312
11
191.805479
21
146.947702
0
LINE
8
annotation
62
1
39
211
10
191.805479
20
146.947702
11
191.776910
21
146.950266
0
LINE
8
annotation
62
1
39
211
10
191.776910
20
146.950266
11
191.697372
21
146.950266
0
LINE
8
annotation
62
1
39
211
10
191.697372
20
146.950266
11
191.776910
21
146.950266
0
LINE
8
annotation
62
1
39
211
10
191.776910
20
146.950266
11
191.776910
21
146.950266
0
LINE
8
annotation
62
1
39
211
10
191.776910
20
146.950266
11
191.805479
21
146.952831
0
LINE
8
annotation
62
1
39
211
10
191.805479
20
146.952831
11
191.832362
21
146.960225
0
LINE
8
annotation
62
1
39
211
10
191.832362
20
146.960225
11
191.857112
21
146.971998
0
LINE
8
annotation
62
1
39
211
10
191.857112
20
146.971998
11
191.879280
21
146.987699
0
LINE
8
annotation
62
1
39
211
10
191.879280
20
146.987699
11
191.898420
21
147.006877
0
LINE
8
annotation
62
1
39
211
10
191.898420
20
147.006877
11
191.914086
21
147.029080
0
LINE
8
annotation
62
1
39
211
10
191.914086
20
147.029080
11
191.925829
21
147.053860
0
LINE
8
annotation
62
1
39
211
10
191.925829
20
147.053860
11
191.933203
21
147.080763
0
LINE
8
annotation
62
1
39
211
10
191.933203
20
147.080763
11
191.935760
21
147.109340
0
LINE
8
annotation
62
1
39
211
10
191.935760
20
147.109340
11
191.935760
21
147.109340
0
LINE
8
annotation
62
1
39
211
10
191.935760
20
147.109340
11
191.933203
21
147.137784
0
LINE
8
annotation
62
1
39
211
10
191.933203
20
147.137784
11
191.925829
21
147.164584
0
LINE
8
annotation
62
1
39
211
10
191.925829
20
147.164584
11
191.914086
21
147.189285
0
LINE
8
annotation
62
1
39
211
10
191.914086
20
147.189285
11
191.898420
21
147.211433
0
LINE
8
annotation
62
1
39
211
10
191.898420
20
147.211433
11
191.879280
21
147.230573
0
LINE
8
annotation
62
1
39
211
10
191.879280
20
147.230573
11
191.857112
21
147.246251
0
LINE
8
annotation
62
1
39
211
10
191.857112
20
147.246251
11
191.832362
21
147.258012
0
LINE
8
annotation
62
1
39
211
10
191.832362
20
147.258012
11
191.805479
21
147.265402
0
LINE
8
annotation
62
1
39
211
10
191.805479
20
147.265402
11
191.776910
21
147.267966
0
LINE
8
annotation
62
1
39
211
10
191.776910
20
147.267966
11
191.618060
21
147.267966
0
LINE
8
annotation
62
1
39
211
10
192.595217
20
146.911125
11
192.204080
21
146.911125
0
LINE
8
annotation
62
1
39
211
10
193.181157
20
146.553449
11
192.863457
21
146.553449
0
LINE
8
annotation
62
1
39
211
10
192.863457
20
146.553449
11
193.157022
21
147.026052
0
LINE
8
annotation
62
1
39
211
10
193.157022
20
147.026052
11
193.157022
21
147.026052
0
LINE
8
annotation
62
1
39
211
10
193.157022
20
147.026052
11
193.157373
21
147.026486
0
LINE
8
annotation
62
1
39
211
10
193.157373
20
147.026486
11
193.157710
21
147.026924
0
LINE
8
annotation
62
1
39
211
10
193.157710
20
147.026924
11
193.158034
21
147.027369
0
LINE
8
annotation
62
1
39
211
10
193.158034
20
147.027369
11
193.158349
21
147.027826
0
LINE
8
annotation
62
1
39
211
10
193.158349
20
147.027826
11
193.158655
21
147.028297
0
LINE
8
annotation
62
1
39
211
10
193.158655
20
147.028297
11
193.158956
21
147.028786
0
LINE
8
annotation
62
1
39
211
10
193.158956
20
147.028786
11
193.159254
21
147.029298
0
LINE
8
annotation
62
1
39
211
10
193.159254
20
147.029298
11
193.159551
21
147.029836
0
LINE
8
annotation
62
1
39
211
10
193.159551
20
147.029836
11
193.159849
21
147.030403
0
LINE
8
annotation
62
1
39
211
10
193.159849
20
147.030403
11
193.159849
21
147.030403
0
LINE
8
annotation
62
1
39
211
10
193.159849
20
147.030403
11
193.171970
21
147.056428
0
LINE
8
annotation
62
1
39
211
10
193.171970
20
147.056428
11
193.179051
21
147.083406
0
LINE
8
annotation
62
1
39
211
10
193.179051
20
147.083406
11
193.181265
21
147.110726
0
LINE
8
annotation
62
1
39
211
10
193.181265
20
147.110726
11
193.178786
21
147.137779
0
LINE
8
annotation
62
1
39
211
10
193.178786
20
147.137779
11
193.171788
21
147.163956
0
LINE
8
annotation
62
1
39
211
10
193.171788
20
147.163956
11
193.160443
21
147.188647
0
LINE
8
annotation
62
1
39
211
10
193.160443
20
147.188647
11
193.144926
21
147.211242
0
LINE
8
annotation
62
1
39
211
10
193.144926
20
147.211242
11
193.125410
21
147.231131
0
LINE
8
annotation
62
1
39
211
10
193.125410
20
147.231131
11
193.102069
21
147.247706
0
LINE
8
annotation
62
1
39
211
10
193.102069
20
147.247706
11
193.102069
21
147.247706
0
LINE
8
annotation
62
1
39
211
10
193.102069
20
147.247706
11
193.075971
21
147.259655
0
LINE
8
annotation
62
1
39
211
10
193.075971
20
147.259655
11
193.048952
21
147.266627
0
LINE
8
annotation
62
1
39
211
10
193.048952
20
147.266627
11
193.021616
21
147.268779
0
LINE
8
annotation
62
1
39
211
10
193.021616
20
147.268779
11
192.994567
21
147.266267
0
LINE
8
annotation
62
1
39
211
10
192.994567
20
147.266267
11
192.968408
21
147.259249
0
LINE
8
annotation
62
1
39
211
10
192.968408
20
147.259249
11
192.943745
21
147.247882
0
LINE
8
annotation
62
1
39
211
10
192.943745
20
147.247882
11
192.921181
21
147.232322
0
LINE
8
annotation
62
1
39
211
10
192.921181
20
147.232322
11
192.901320
21
147.212727
0
LINE
8
annotation
62
1
39
211
10
192.901320
20
147.212727
11
192.884765
21
147.189253
0
LINE
8
annotation
62
1
39
211
10
192.884765
20
147.189253
11
192.863905
21
147.149238
0
LINE
8
hole
62
5
39
2
10
76.819991
20
222.635320
11
68.675049
21
235.320551
0
LINE
8
hole
62
5
39
2
10
68.675049
20
235.320551
11
66.904380
21
238.078255
0
LINE
8
hole
62
5
39
2
10
66.904380
20
238.078255
11
75.049322
21
238.078255
0
LINE
8
hole
62
5
39
2
10
75.049322
20
238.078255
11
76.819990
21
238.078255
0
LINE
8
hole
62
5
39
2
10
76.819990
20
238.078255
11
76.819991
21
235.320551
0
LINE
8
hole
62
5
39
2
10
76.819991
20
235.320551
11
76.819991
21
222.635320
0
LINE
8
hole
62
5
39
2
10
27.583228
20
225.393024
11
27.583228
21
238.078256
0
LINE
8
hole
62
5
39
2
10
27.583228
20
238.078256
11
35.728172
21
238.078256
0
LINE
8
hole
62
5
39
2
10
35.728172
20
238.078256
11
37.498841
21
238.078255
0
LINE
8
hole
62
5
39
2
10
37.498841
20
238.078255
11
29.353897
21
225.393024
0
LINE
8
hole
62
5
39
2
10
29.353897
20
225.393024
11
27.583228
21
222.635321
0
LINE
8
hole
62
5
39
2
10
27.583228
20
222.635321
11
27.583228
21
225.393024
0
LINE
8
boundary
62
5
39
2
10
11.787500
20
204.793001
11
11.787500
21
165.362508
0
LINE
8
boundary
62
5
39
2
10
11.787500
20
165.362508
11
15.867650
21
165.362508
0
LINE
8
boundary
62
5
39
2
10
15.867650
20
165.362508
11
16.754654
21
165.362508
0
LINE
8
boundary
62
5
39
2
10
16.754654
20
165.362508
11
25.649528
21
165.362508
0
LINE
8
boundary
62
5
39
2
10
25.649528
20
165.362508
11
27.583228
21
165.362507
0
LINE
8
boundary
62
5
39
2
10
27.583228
20
165.362507
11
27.583228
21
173.934495
0
LINE
8
boundary
62
5
39
2
10
27.583228
20
173.934495
11
27.583228
21
213.364989
0
LINE
8
boundary
62
5
39
2
10
27.583228
20
213.364989
11
41.085299
21
233.665112
0
LINE
8
boundary
62
5
39
2
10
41.085299
20
233.665112
11
44.020581
21
238.078256
0
LINE
8
boundary
62
5
39
2
10
44.020581
20
238.078256
11
49.092625
21
238.078256
0
LINE
8
boundary
62
5
39
2
10
49.092625
20
238.078256
11
50.195261
21
238.078256
0
LINE
8
boundary
62
5
39
2
10
50.195261
20
238.078256
11
53.491395
21
238.078256
0
LINE
8
boundary
62
5
39
2
10
53.491395
20
238.078256
11
54.207958
21
238.078255
0
LINE
8
boundary
62
5
39
2
10
54.207958
20
238.078255
11
59.280001
21
238.078255
0
LINE
8
boundary
62
5
39
2
10
59.280001
20
238.078255
11
60.382638
21
238.078255
0
LINE
8
boundary
62
5
39
2
10
60.382638
20
238.078255
11
73.884709
21
217.778136
0
LINE
8
boundary
62
5
39
2
10
73.884709
20
217.778136
11
76.819990
21
213.364995
0
LINE
8
boundary
62
5
39
2
10
76.819990
20
213.364995
11
76.819991
21
204.793006
0
LINE
8
boundary
62
5
39
2
10
76.819991
20
204.793006
11
76.819991
21
165.362508
0
LINE
8
boundary
62
5
39
2
10
76.819991
20
165.362508
11
85.714864
21
165.362508
0
LINE
8
boundary
62
5
39
2
10
85.714864
20
165.362508
11
87.648564
21
165.362508
0
LINE
8
boundary
62
5
39
2
10
87.648564
20
165.362508
11
91.728722
21
165.362508
0
LINE
8
boundary
62
5
39
2
10
91.728722
20
165.362508
11
92.615727
21
165.362507
0
LINE
8
boundary
62
5
39
2
10
92.615727
20
165.362507
11
92.615727
21
173.934496
0
LINE
8
boundary
62
5
39
2
10
92.615727
20
173.934496
11
92.615727
21
213.364995
0
LINE
8
boundary
62
5
39
2
10
92.615727
20
213.364995
11
92.615727
21
214.192712
0
LINE
8
boundary
62
5
39
2
10
92.615727
20
214.192712
11
92.615727
21
218.000163
0
LINE
8
boundary
62
5
39
2
10
92.615727
20
218.000163
11
92.615727
21
218.827883
0
LINE
8
boundary
62
5
39
2
10
92.615727
20
218.827883
11
92.615727
21
222.635327
0
LINE
8
boundary
62
5
39
2
10
92.615727
20
222.635327
11
92.615727
21
225.393031
0
LINE
8
boundary
62
5
39
2
10
92.615727
20
225.393031
11
92.615727
21
238.078255
0
LINE
8
boundary
62
5
39
2
10
92.615727
20
238.078255
11
92.615727
21
240.709570
0
LINE
8
boundary
62
5
39
2
10
92.615727
20
240.709570
11
92.615727
21
252.813419
0
LINE
8
boundary
62
5
39
2
10
92.615727
20
252.813419
11
92.615727
21
257.743360
0
LINE
8
boundary
62
5
39
2
10
92.615727
20
257.743360
11
92.615727
21
280.420719
0
LINE
8
boundary
62
5
39
2
10
92.615727
20
280.420719
11
92.615727
21
283.142772
0
LINE
8
boundary
62
5
39
2
10
92.615727
20
283.142772
11
92.615727
21
295.664008
0
LINE
8
boundary
62
5
39
2
10
92.615727
20
295.664008
11
88.535570
21
295.664008
0
LINE
8
boundary
62
5
39
2
10
88.535570
20
295.664008
11
87.648564
21
295.664008
0
LINE
8
boundary
62
5
39
2
10
87.648564
20
295.664008
11
78.753690
21
295.664008
0
LINE
8
boundary
62
5
39
2
10
78.753690
20
295.664008
11
76.819990
21
295.664008
0
LINE
8
boundary
62
5
39
2
10
76.819990
20
295.664008
11
68.675049
21
295.664008
0
LINE
8
boundary
62
5
39
2
10
68.675049
20
295.664008
11
66.904380
21
295.664008
0
LINE
8
boundary
62
5
39
2
10
66.904380
20
295.664008
11
64.984946
21
295.664008
0
LINE
8
boundary
62
5
39
2
10
64.984946
20
295.664008
11
64.567670
21
295.664008
0
LINE
8
boundary
62
5
39
2
10
64.567670
20
295.664008
11
61.129975
21
295.664008
0
LINE
8
boundary
62
5
39
2
10
61.129975
20
295.664008
11
60.382638
21
295.664008
0
LINE
8
boundary
62
5
39
2
10
60.382638
20
295.664008
11
55.310594
21
295.664008
0
LINE
8
boundary
62
5
39
2
10
55.310594
20
295.664008
11
54.207958
21
295.664008
0
LINE
8
boundary
62
5
39
2
10
54.207958
20
295.664008
11
50.911824
21
295.664008
0
LINE
8
boundary
62
5
39
2
10
50.911824
20
295.664008
11
50.195261
21
295.664008
0
LINE
8
boundary
62
5
39
2
10
50.195261
20
295.664008
11
45.123217
21
295.664008
0
LINE
8
boundary
62
5
39
2
10
45.123217
20
295.664008
11
44.020581
21
295.664008
0
LINE
8
boundary
62
5
39
2
10
44.020581
20
295.664008
11
40.582887
21
295.664008
0
LINE
8
boundary
62
5
39
2
10
40.582887
20
295.664008
11
39.835549
21
295.664008
0
LINE
8
boundary
62
5
39
2
10
39.835549
20
295.664008
11
37.916116
21
295.664008
0
LINE
8
boundary
62
5
39
2
10
37.916116
20
295.664008
11
37.498841
21
295.664008
0
LINE
8
boundary
62
5
39
2
10
37.498841
20
295.664008
11
29.353897
21
295.664008
0
LINE
8
boundary
62
5
39
2
10
29.353897
20
295.664008
11
27.583228
21
295.664008
0
LINE
8
boundary
62
5
39
2
10
27.583228
20
295.664008
11
18.688354
21
295.664008
0
LINE
8
boundary
62
5
39
2
10
18.688354
20
295.664008
11
16.754654
21
295.664008
0
LINE
8
boundary
62
5
39
2
10
16.754654
20
295.664008
11
12.674504
21
295.664008
0
LINE
8
boundary
62
5
39
2
10
12.674504
20
295.664008
11
11.787500
21
295.664008
0
LINE
8
boundary
62
5
39
2
10
11.787500
20
295.664008
11
11.787500
21
292.941955
0
LINE
8
boundary
62
5
39
2
10
11.787500
20
292.941955
11
11.787500
21
291.147277
0
LINE
8
boundary
62
5
39
2
10
11.787500
20
291.147277
11
11.932500
21
290.947277
0
LINE
8
boundary
62
5
39
2
10
11.932500
20
290.947277
11
52.151614
21
290.947277
0
LINE
8
boundary
62
5
39
2
10
52.151614
20
290.947277
11
52.151614
21
287.047277
0
LINE
8
boundary
62
5
39
2
10
52.151614
20
287.047277
11
11.932500
21
287.047277
0
LINE
8
boundary
62
5
39
2
10
11.932500
20
287.047277
11
11.787500
21
286.847277
0
LINE
8
boundary
62
5
39
2
10
11.787500
20
286.847277
11
11.787500
21
280.420719
0
LINE
8
boundary
62
5
39
2
10
11.787500
20
280.420719
11
11.787500
21
275.490777
0
LINE
8
boundary
62
5
39
2
10
11.787500
20
275.490777
11
11.787500
21
252.813419
0
LINE
8
boundary
62
5
39
2
10
11.787500
20
252.813419
11
11.787500
21
250.182104
0
LINE
8
boundary
62
5
39
2
10
11.787500
20
250.182104
11
11.787500
21
247.650321
0
LINE
8
boundary
62
5
39
2
10
11.787500
20
247.650321
11
11.932500
21
247.450321
0
LINE
8
boundary
62
5
39
2
10
11.932500
20
247.450321
11
52.151614
21
247.450321
0
LINE
8
boundary
62
5
39
2
10
52.151614
20
247.450321
11
52.151614
21
243.550321
0
LINE
8
boundary
62
5
39
2
10
52.151614
20
243.550321
11
11.932500
21
243.550321
0
LINE
8
boundary
62
5
39
2
10
11.932500
20
243.550321
11
11.787500
21
243.350321
0
LINE
8
boundary
62
5
39
2
10
11.787500
20
243.350321
11
11.787500
21
238.078255
0
LINE
8
boundary
62
5
39
2
10
11.787500
20
238.078255
11
11.787500
21
235.320553
0
LINE
8
boundary
62
5
39
2
10
11.787500
20
235.320553
11
11.787500
21
222.635322
0
LINE
8
boundary
62
5
39
2
10
11.787500
20
222.635322
11
11.787500
21
221.807600
0
LINE
8
boundary
62
5
39
2
10
11.787500
20
221.807600
11
11.787500
21
218.000148
0
LINE
8
boundary
62
5
39
2
10
11.787500
20
218.000148
11
11.787500
21
217.172430
0
LINE
8
boundary
62
5
39
2
10
11.787500
20
217.172430
11
11.787500
21
213.364989
0
LINE
8
boundary
62
5
39
2
10
11.787500
20
213.364989
11
11.787500
21
204.793001
0
LINE
8
annotation
62
1
39
211
10
60.912413
20
242.300321
11
60.912413
21
248.700321
0
LINE
8
annotation
62
1
39
211
10
60.912413
20
248.700321
11
59.489611
21
247.277117
0
LINE
8
annotation
62
1
39
211
10
61.622007
20
285.797225
11
58.779614
21
285.797225
0
LINE
8
annotation
62
1
39
211
10
58.779614
20
285.797225
11
61.406079
21
290.025496
0
LINE
8
annotation
62
1
39
211
10
61.406079
20
290.025496
11
61.406079
21
290.025496
0
LINE
8
annotation
62
1
39
211
10
61.406079
20
290.025496
11
61.409219
21
290.029381
0
LINE
8
annotation
62
1
39
211
10
61.409219
20
290.029381
11
61.412230
21
290.033299
0
LINE
8
annotation
62
1
39
211
10
61.412230
20
290.033299
11
61.415131
21
290.037284
0
LINE
8
annotation
62
1
39
211
10
61.415131
20
290.037284
11
61.417944
21
290.041367
0
LINE
8
annotation
62
1
39
211
10
61.417944
20
290.041367
11
61.420688
21
290.045583
0
LINE
8
annotation
62
1
39
211
10
61.420688
20
290.045583
11
61.423382
21
290.049963
0
LINE
8
annotation
62
1
39
211
10
61.423382
20
290.049963
11
61.426046
21
290.054542
0
LINE
8
annotation
62
1
39
211
10
61.426046
20
290.054542
11
61.428700
21
290.059353
0
LINE
8
annotation
62
1
39
211
10
61.428700
20
290.059353
11
61.431364
21
290.064427
0
LINE
8
annotation
62
1
39
211
10
61.431364
20
290.064427
11
61.431364
21
290.064427
0
LINE
8
annotation
62
1
39
211
10
61.431364
20
290.064427
11
61.539810
21
290.297270
0
LINE
8
annotation
62
1
39
211
10
61.539810
20
290.297270
11
61.603163
21
290.538632
0
LINE
8
annotation
62
1
39
211
10
61.603163
20
290.538632
11
61.622974
21
290.783060
0
LINE
8
annotation
62
1
39
211
10
61.622974
20
290.783060
11
61.600796
21
291.025099
0
LINE
8
annotation
62
1
39
211
10
61.600796
20
291.025099
11
61.538183
21
291.259297
0
LINE
8
annotation
62
1
39
211
10
61.538183
20
291.259297
11
61.436686
21
291.480198
0
LINE
8
annotation
62
1
39
211
10
61.436686
20
291.480198
11
61.297858
21
291.682350
0
LINE
8
annotation
62
1
39
211
10
61.297858
20
291.682350
11
61.123251
21
291.860298
0
LINE
8
annotation
62
1
39
211
10
61.123251
20
291.860298
11
60.914419
21
292.008589
0
LINE
8
annotation
62
1
39
211
10
60.914419
20
292.008589
11
60.914419
21
292.008589
0
LINE
8
annotation
62
1
39
211
10
60.914419
20
292.008589
11
60.680929
21
292.115494
0
LINE
8
annotation
62
1
39
211
10
60.680929
20
292.115494
11
60.439197
21
292.177870
0
LINE
8
annotation
62
1
39
211
10
60.439197
20
292.177870
11
60.194627
21
292.197121
0
LINE
8
annotation
62
1
39
211
10
60.194627
20
292.197121
11
59.952624
21
292.174651
0
LINE
8
annotation
62
1
39
211
10
59.952624
20
292.174651
11
59.718592
21
292.111864
0
LINE
8
annotation
62
1
39
211
10
59.718592
20
292.111864
11
59.497935
21
292.010164
0
LINE
8
annotation
62
1
39
211
10
59.497935
20
292.010164
11
59.296058
21
291.870955
0
LINE
8
annotation
62
1
39
211
10
59.296058
20
291.870955
11
59.118364
21
291.695640
0
LINE
8
annotation
62
1
39
211
10
59.118364
20
291.695640
11
58.970258
21
291.485624
0
LINE
8
annotation
62
1
39
211
10
58.970258
20
291.485624
11
58.783628
21
291.127615
0
LINE
8
annotation
62
1
39
211
10
37.999665
20
273.892001
11
34.870547
21
269.366019
0
LINE
8
annotation
62
1
39
211
10
34.870547
20
269.366019
11
31.740841
21
273.892001
0
LINE
8
annotation
62
1
39
211
10
34.870547
20
269.730239
11
34.870547
21
264.508767
0
LINE
8
annotation
62
1
39
211
10
46.649605
20
269.200384
11
41.519334
21
269.200384
0
LINE
8
annotation
62
1
39
211
10
50.167214
20
264.509355
11
52.250743
21
264.509355
0
LINE
8
annotation
62
1
39
211
10
52.250743
20
264.509355
11
52.250743
21
264.509355
0
LINE
8
annotation
62
1
39
211
10
52.250743
20
264.509355
11
52.625471
21
264.542971
0
LINE
8
annotation
62
1
39
211
10
52.625471
20
264.542971
11
52.978076
21
264.639853
0
LINE
8
annotation
62
1
39
211
10
52.978076
20
264.639853
11
53.302696
21
264.794054
0
LINE
8
annotation
62
1
39
211
10
53.302696
20
264.794054
11
53.593463
21
264.999628
0
LINE
8
annotation
62
1
39
211
10
53.593463
20
264.999628
11
53.844515
21
265.250628
0
LINE
8
annotation
62
1
39
211
10
53.844515
20
265.250628
11
54.049987
21
265.541106
0
LINE
8
annotation
62
1
39
211
10
54.049987
20
265.541106
11
54.204013
21
265.865115
0
LINE
8
annotation
62
1
39
211
10
54.204013
20
265.865115
11
54.300730
21
266.216710
0
LINE
8
annotation
62
1
39
211
10
54.300730
20
266.216710
11
54.334272
21
266.589942
0
LINE
8
annotation
62
1
39
211
10
54.334272
20
266.589942
11
54.334272
21
267.633177
0
LINE
8
annotation
62
1
39
211
10
54.334272
20
267.633177
11
54.334272
21
267.633177
0
LINE
8
annotation
62
1
39
211
10
54.334272
20
267.633177
11
54.300730
21
268.006254
0
LINE
8
annotation
62
1
39
211
10
54.300730
20
268.006254
11
54.204013
21
268.357766
0
LINE
8
annotation
62
1
39
211
10
54.204013
20
268.357766
11
54.049987
21
268.681752
0
LINE
8
annotation
62
1
39
211
10
54.049987
20
268.681752
11
53.844515
21
268.972249
0
LINE
8
annotation
62
1
39
211
10
53.844515
20
268.972249
11
53.593463
21
269.223297
0
LINE
8
annotation
62
1
39
211
10
53.593463
20
269.223297
11
53.302696
21
269.428934
0
LINE
8
annotation
62
1
39
211
10
53.302696
20
269.428934
11
52.978076
21
269.583199
0
LINE
8
annotation
62
1
39
211
10
52.978076
20
269.583199
11
52.625471
21
269.680129
0
LINE
8
annotation
62
1
39
211
10
52.625471
20
269.680129
11
52.250743
21
269.713764
0
LINE
8
annotation
62
1
39
211
10
52.250743
20
269.713764
11
51.207508
21
269.713764
0
LINE
8
annotation
62
1
39
211
10
51.207508
20
269.713764
11
52.250743
21
269.713764
0
LINE
8
annotation
62
1
39
211
10
52.250743
20
269.713764
11
52.250743
21
269.713764
0
LINE
8
annotation
62
1
39
211
10
52.250743
20
269.713764
11
52.625471
21
269.747407
0
LINE
8
annotation
62
1
39
211
10
52.625471
20
269.747407
11
52.978076
21
269.844394
0
LINE
8
annotation
62
1
39
211
10
52.978076
20
269.844394
11
53.302696
21
269.998812
0
LINE
8
annotation
62
1
39
211
10
53.302696
20
269.998812
11
53.593463
21
270.204747
0
LINE
8
annotation
62
1
39
211
10
53.593463
20
270.204747
11
53.844515
21
270.456288
0
LINE
8
annotation
62
1
39
211
10
53.844515
20
270.456288
11
54.049987
21
270.747520
0
LINE
8
annotation
62
1
39
211
10
54.049987
20
270.747520
11
54.204013
21
271.072530
0
LINE
8
annotation
62
1
39
211
10
54.204013
20
271.072530
11
54.300730
21
271.425406
0
LINE
8
annotation
62
1
39
211
10
54.300730
20
271.425406
11
54.334272
21
271.800235
0
LINE
8
annotation
62
1
39
211
10
54.334272
20
271.800235
11
54.334272
21
271.800235
0
LINE
8
annotation
62
1
39
211
10
54.334272
20
271.800235
11
54.300730
21
272.173312
0
LINE
8
annotation
62
1
39
211
10
54.300730
20
272.173312
11
54.204013
21
272.524824
0
LINE
8
annotation
62
1
39
211
10
54.204013
20
272.524824
11
54.049987
21
272.848809
0
LINE
8
annotation
62
1
39
211
10
54.049987
20
272.848809
11
53.844515
21
273.139307
0
LINE
8
annotation
62
1
39
211
10
53.844515
20
273.139307
11
53.593463
21
273.390355
0
LINE
8
annotation
62
1
39
211
10
53.593463
20
273.390355
11
53.302696
21
273.595992
0
LINE
8
annotation
62
1
39
211
10
53.302696
20
273.595992
11
52.978076
21
273.750256
0
LINE
8
annotation
62
1
39
211
10
52.978076
20
273.750256
11
52.625471
21
273.847187
0
LINE
8
annotation
62
1
39
211
10
52.625471
20
273.847187
11
52.250743
21
273.880822
0
LINE
8
annotation
62
1
39
211
10
52.250743
20
273.880822
11
50.167214
21
273.880822
0
LINE
8
annotation
62
1
39
211
10
62.983917
20
269.200384
11
57.853647
21
269.200384
0
LINE
8
annotation
62
1
39
211
10
68.587704
20
264.509061
11
68.587704
21
273.891707
0
LINE
8
annotation
62
1
39
211
10
68.587704
20
273.891707
11
66.501821
21
271.805236
0
LINE
8
boundary
62
5
39
2
10
16.754654
20
380.053988
11
14.252711
21
380.053988
0
LINE
8
boundary
62
5
39
2
10
14.252711
20
380.053988
11
11.787500
21
380.053988
0
LINE
8
boundary
62
5
39
2
10
11.787500
20
380.053988
11
11.787500
21
377.552039
0
LINE
8
boundary
62
5
39
2
10
11.787500
20
377.552039
11
11.787500
21
375.086822
0
LINE
8
boundary
62
5
39
2
10
11.787500
20
375.086822
11
11.787500
21
369.632496
0
LINE
8
boundary
62
5
39
2
10
11.787500
20
369.632496
11
11.787500
21
364.258248
0
LINE
8
boundary
62
5
39
2
10
11.787500
20
364.258248
11
11.787500
21
359.263780
0
LINE
8
boundary
62
5
39
2
10
11.787500
20
359.263780
11
11.787500
21
354.342638
0
LINE
8
boundary
62
5
39
2
10
11.787500
20
354.342638
11
11.787500
21
353.165643
0
LINE
8
boundary
62
5
39
2
10
11.787500
20
353.165643
11
11.787500
21
352.005927
0
LINE
8
boundary
62
5
39
2
10
11.787500
20
352.005927
11
11.787500
21
349.897937
0
LINE
8
boundary
62
5
39
2
10
11.787500
20
349.897937
11
11.787500
21
347.820895
0
LINE
8
boundary
62
5
39
2
10
11.787500
20
347.820895
11
11.787500
21
344.717398
0
LINE
8
boundary
62
5
39
2
10
11.787500
20
344.717398
11
11.787500
21
341.659464
0
LINE
8
boundary
62
5
39
2
10
11.787500
20
341.659464
11
11.787500
21
339.631605
0
LINE
8
boundary
62
5
39
2
10
11.787500
20
339.631605
11
11.787500
21
337.633519
0
LINE
8
boundary
62
5
39
2
10
11.787500
20
337.633519
11
11.787500
21
334.530028
0
LINE
8
boundary
62
5
39
2
10
11.787500
20
334.530028
11
11.787500
21
331.472101
0
LINE
8
boundary
62
5
39
2
10
11.787500
20
331.472101
11
11.787500
21
329.364104
0
LINE
8
boundary
62
5
39
2
10
11.787500
20
329.364104
11
11.787500
21
327.287055
0
LINE
8
boundary
62
5
39
2
10
11.787500
20
327.287055
11
11.787500
21
325.931479
0
LINE
8
boundary
62
5
39
2
10
11.787500
20
325.931479
11
11.787500
21
324.595804
0
LINE
8
boundary
62
5
39
2
10
11.787500
20
324.595804
11
11.787500
21
319.779924
0
LINE
8
boundary
62
5
39
2
10
11.787500
20
319.779924
11
11.787500
21
315.034748
0
LINE
8
boundary
62
5
39
2
10
11.787500
20
315.034748
11
11.787500
21
309.580422
0
LINE
8
boundary
62
5
39
2
10
11.787500
20
309.580422
11
11.787500
21
304.206174
0
LINE
8
boundary
62
5
39
2
10
11.787500
20
304.206174
11
11.787500
21
301.704225
0
LINE
8
boundary
62
5
39
2
10
11.787500
20
301.704225
11
11.787500
21
299.239008
0
LINE
8
boundary
62
5
39
2
10
11.787500
20
299.239008
11
14.289443
21
299.239008
0
LINE
8
boundary
62
5
39
2
10
14.289443
20
299.239008
11
16.754654
21
299.239008
0
LINE
8
boundary
62
5
39
2
10
16.754654
20
299.239008
11
22.208980
21
299.239008
0
LINE
8
boundary
62
5
39
2
10
22.208980
20
299.239008
11
27.583228
21
299.239008
0
LINE
8
boundary
62
5
39
2
10
27.583228
20
299.239008
11
32.577698
21
299.239008
0
LINE
8
boundary
62
5
39
2
10
32.577698
20
299.239008
11
37.498841
21
299.239008
0
LINE
8
boundary
62
5
39
2
10
37.498841
20
299.239008
11
38.675835
21
299.239008
0
LINE
8
boundary
62
5
39
2
10
38.675835
20
299.239008
11
39.835550
21
299.239008
0
LINE
8
boundary
62
5
39
2
10
39.835550
20
299.239008
11
41.943539
21
299.239008
0
LINE
8
boundary
62
5
39
2
10
41.943539
20
299.239008
11
44.020581
21
299.239008
0
LINE
8
boundary
62
5
39
2
10
44.020581
20
299.239008
11
47.130759
21
299.239008
0
LINE
8
boundary
62
5
39
2
10
47.130759
20
299.239008
11
50.195274
21
299.239008
0
LINE
8
boundary
62
5
39
2
10
50.195274
20
299.239008
11
52.216453
21
299.239008
0
LINE
8
boundary
62
5
39
2
10
52.216453
20
299.239008
11
52.254625
21
299.239008
0
LINE
8
boundary
62
5
39
2
10
52.254625
20
299.239008
11
52.251614
21
299.243162
0
LINE
8
boundary
62
5
39
2
10
52.251614
20
299.243162
11
52.251614
21
303.143162
0
LINE
8
boundary
62
5
39
2
10
52.251614
20
303.143162
11
92.470727
21
303.143162
0
LINE
8
boundary
62
5
39
2
10
92.470727
20
303.143162
11
92.615727
21
303.343162
0
LINE
8
boundary
62
5
39
2
10
92.615727
20
303.343162
11
92.615727
21
304.206174
0
LINE
8
boundary
62
5
39
2
10
92.615727
20
304.206174
11
92.615727
21
309.660500
0
LINE
8
boundary
62
5
39
2
10
92.615727
20
309.660500
11
92.615727
21
310.876978
0
LINE
8
boundary
62
5
39
2
10
92.615727
20
310.876978
11
92.470727
21
311.076978
0
LINE
8
boundary
62
5
39
2
10
92.470727
20
311.076978
11
52.251614
21
311.076978
0
LINE
8
boundary
62
5
39
2
10
52.251614
20
311.076978
11
52.251614
21
314.976978
0
LINE
8
boundary
62
5
39
2
10
52.251614
20
314.976978
11
92.470727
21
314.976978
0
LINE
8
boundary
62
5
39
2
10
92.470727
20
314.976978
11
92.615727
21
315.176977
0
LINE
8
boundary
62
5
39
2
10
92.615727
20
315.176977
11
92.615727
21
319.850628
0
LINE
8
boundary
62
5
39
2
10
92.615727
20
319.850628
11
92.615727
21
324.595804
0
LINE
8
boundary
62
5
39
2
10
92.615727
20
324.595804
11
92.615727
21
325.951381
0
LINE
8
boundary
62
5
39
2
10
92.615727
20
325.951381
11
92.615727
21
327.287062
0
LINE
8
boundary
62
5
39
2
10
92.615727
20
327.287062
11
92.615727
21
329.395059
0
LINE
8
boundary
62
5
39
2
10
92.615727
20
329.395059
11
92.615727
21
331.472101
0
LINE
8
boundary
62
5
39
2
10
92.615727
20
331.472101
11
92.615727
21
334.575592
0
LINE
8
boundary
62
5
39
2
10
92.615727
20
334.575592
11
92.615727
21
337.633519
0
LINE
8
boundary
62
5
39
2
10
92.615727
20
337.633519
11
92.615727
21
339.661384
0
LINE
8
boundary
62
5
39
2
10
92.615727
20
339.661384
11
92.615727
21
341.659477
0
LINE
8
boundary
62
5
39
2
10
92.615727
20
341.659477
11
92.615727
21
344.762968
0
LINE
8
boundary
62
5
39
2
10
92.615727
20
344.762968
11
92.615727
21
347.820895
0
LINE
8
boundary
62
5
39
2
10
92.615727
20
347.820895
11
92.615727
21
349.928886
0
LINE
8
boundary
62
5
39
2
10
92.615727
20
349.928886
11
92.615727
21
352.005927
0
LINE
8
boundary
62
5
39
2
10
92.615727
20
352.005927
11
92.615727
21
353.182923
0
LINE
8
boundary
62
5
39
2
10
92.615727
20
353.182923
11
92.615727
21
354.342638
0
LINE
8
boundary
62
5
39
2
10
92.615727
20
354.342638
11
92.615727
21
359.337106
0
LINE
8
boundary
62
5
39
2
10
92.615727
20
359.337106
11
92.615727
21
364.041948
0
LINE
8
boundary
62
5
39
2
10
92.615727
20
364.041948
11
92.470727
21
364.241948
0
LINE
8
boundary
62
5
39
2
10
92.470727
20
364.241948
11
52.251614
21
364.241948
0
LINE
8
boundary
62
5
39
2
10
52.251614
20
364.241948
11
52.251614
21
368.141948
0
LINE
8
boundary
62
5
39
2
10
52.251614
20
368.141948
11
92.470727
21
368.141948
0
LINE
8
boundary
62
5
39
2
10
92.470727
20
368.141948
11
92.615727
21
368.341948
0
LINE
8
boundary
62
5
39
2
10
92.615727
20
368.341948
11
92.615727
21
369.712574
0
LINE
8
boundary
62
5
39
2
10
92.615727
20
369.712574
11
92.615727
21
375.086822
0
LINE
8
boundary
62
5
39
2
10
92.615727
20
375.086822
11
92.615727
21
375.949834
0
LINE
8
boundary
62
5
39
2
10
92.615727
20
375.949834
11
92.470727
21
376.149834
0
LINE
8
boundary
62
5
39
2
10
92.470727
20
376.149834
11
52.251614
21
376.149834
0
LINE
8
boundary
62
5
39
2
10
52.251614
20
376.149834
11
52.251614
21
380.049834
0
LINE
8
boundary
62
5
39
2
10
52.251614
20
380.049834
11
52.254625
21
380.053988
0
LINE
8
boundary
62
5
39
2
10
52.254625
20
380.053988
11
52.186772
21
380.053988
0
LINE
8
boundary
62
5
39
2
10
52.186772
20
380.053988
11
50.195261
21
380.053988
0
LINE
8
boundary
62
5
39
2
10
50.195261
20
380.053988
11
47.085090
21
380.053988
0
LINE
8
boundary
62
5
39
2
10
47.085090
20
380.053988
11
44.020581
21
380.053988
0
LINE
8
boundary
62
5
39
2
10
44.020581
20
380.053988
11
41.912591
21
380.053988
0
LINE
8
boundary
62
5
39
2
10
41.912591
20
380.053988
11
39.835550
21
380.053988
0
LINE
8
boundary
62
5
39
2
10
39.835550
20
380.053988
11
38.658555
21
380.053988
0
LINE
8
boundary
62
5
39
2
10
38.658555
20
380.053988
11
37.498841
21
380.053988
0
LINE
8
boundary
62
5
39
2
10
37.498841
20
380.053988
11
32.504371
21
380.053988
0
LINE
8
boundary
62
5
39
2
10
32.504371
20
380.053988
11
27.583228
21
380.053988
0
LINE
8
boundary
62
5
39
2
10
27.583228
20
380.053988
11
22.128902
21
380.053988
0
LINE
8
boundary
62
5
39
2
10
22.128902
20
380.053988
11
16.754654
21
380.053988
0
LINE
8
annotation
62
1
39
211
10
47.828093
20
300.873162
11
47.828093
21
304.713162
0
LINE
8
annotation
62
1
39
211
10
47.828093
20
304.713162
11
46.974412
21
303.859240
0
LINE
8
annotation
62
1
39
211
10
45.622007
20
309.826926
11
42.779614
21
309.826926
0
LINE
8
annotation
62
1
39
211
10
42.779614
20
309.826926
11
45.406079
21
314.055196
0
LINE
8
annotation
62
1
39
211
10
45.406079
20
314.055196
11
45.406079
21
314.055196
0
LINE
8
annotation
62
1
39
211
10
45.406079
20
314.055196
11
45.409219
21
314.059081
0
LINE
8
annotation
62
1
39
211
10
45.409219
20
314.059081
11
45.412230
21
314.063000
0
LINE
8
annotation
62
1
39
211
10
45.412230
20
314.063000
11
45.415131
21
314.066984
0
LINE
8
annotation
62
1
39
211
10
45.415131
20
314.066984
11
45.417944
21
314.071067
0
LINE
8
annotation
62
1
39
211
10
45.417944
20
314.071067
11
45.420688
21
314.075283
0
LINE
8
annotation
62
1
39
211
10
45.420688
20
314.075283
11
45.423382
21
314.079664
0
LINE
8
annotation
62
1
39
211
10
45.423382
20
314.079664
11
45.426046
21
314.084243
0
LINE
8
annotation
62
1
39
211
10
45.426046
20
314.084243
11
45.428700
21
314.089053
0
LINE
8
annotation
62
1
39
211
10
45.428700
20
314.089053
11
45.431364
21
314.094127
0
LINE
8
annotation
62
1
39
211
10
45.431364
20
314.094127
11
45.431364
21
314.094127
0
LINE
8
annotation
62
1
39
211
10
45.431364
20
314.094127
11
45.539810
21
314.326970
0
LINE
8
annotation
62
1
39
211
10
45.539810
20
314.326970
11
45.603163
21
314.568332
0
LINE
8
annotation
62
1
39
211
10
45.603163
20
314.568332
11
45.622974
21
314.812760
0
LINE
8
annotation
62
1
39
211
10
45.622974
20
314.812760
11
45.600796
21
315.054800
0
LINE
8
annotation
62
1
39
211
10
45.600796
20
315.054800
11
45.538183
21
315.288997
0
LINE
8
annotation
62
1
39
211
10
45.538183
20
315.288997
11
45.436686
21
315.509898
0
LINE
8
annotation
62
1
39
211
10
45.436686
20
315.509898
11
45.297858
21
315.712050
0
LINE
8
annotation
62
1
39
211
10
45.297858
20
315.712050
11
45.123251
21
315.889998
0
LINE
8
annotation
62
1
39
211
10
45.123251
20
315.889998
11
44.914419
21
316.038289
0
LINE
8
annotation
62
1
39
211
10
44.914419
20
316.038289
11
44.914419
21
316.038289
0
LINE
8
annotation
62
1
39
211
10
44.914419
20
316.038289
11
44.680929
21
316.145194
0
LINE
8
annotation
62
1
39
211
10
44.680929
20
316.145194
11
44.439197
21
316.207570
0
LINE
8
annotation
62
1
39
211
10
44.439197
20
316.207570
11
44.194627
21
316.226821
0
LINE
8
annotation
62
1
39
211
10
44.194627
20
316.226821
11
43.952624
21
316.204352
0
LINE
8
annotation
62
1
39
211
10
43.952624
20
316.204352
11
43.718592
21
316.141565
0
LINE
8
annotation
62
1
39
211
10
43.718592
20
316.141565
11
43.497935
21
316.039865
0
LINE
8
annotation
62
1
39
211
10
43.497935
20
316.039865
11
43.296058
21
315.900655
0
LINE
8
annotation
62
1
39
211
10
43.296058
20
315.900655
11
43.118364
21
315.725340
0
LINE
8
annotation
62
1
39
211
10
43.118364
20
315.725340
11
42.970258
21
315.515324
0
LINE
8
annotation
62
1
39
211
10
42.970258
20
315.515324
11
42.783628
21
315.157316
0
LINE
8
annotation
62
1
39
211
10
42.779614
20
362.992149
11
44.200811
21
362.992149
0
LINE
8
annotation
62
1
39
211
10
44.200811
20
362.992149
11
44.200811
21
362.992149
0
LINE
8
annotation
62
1
39
211
10
44.200811
20
362.992149
11
44.456416
21
363.015078
0
LINE
8
annotation
62
1
39
211
10
44.456416
20
363.015078
11
44.696932
21
363.081163
0
LINE
8
annotation
62
1
39
211
10
44.696932
20
363.081163
11
44.918359
21
363.186345
0
LINE
8
annotation
62
1
39
211
10
44.918359
20
363.186345
11
45.116694
21
363.326569
0
LINE
8
annotation
62
1
39
211
10
45.116694
20
363.326569
11
45.287939
21
363.497779
0
LINE
8
annotation
62
1
39
211
10
45.287939
20
363.497779
11
45.428094
21
363.695917
0
LINE
8
annotation
62
1
39
211
10
45.428094
20
363.695917
11
45.533157
21
363.916927
0
LINE
8
annotation
62
1
39
211
10
45.533157
20
363.916927
11
45.599128
21
364.156753
0
LINE
8
annotation
62
1
39
211
10
45.599128
20
364.156753
11
45.622007
21
364.411339
0
LINE
8
annotation
62
1
39
211
10
45.622007
20
364.411339
11
45.622007
21
365.122940
0
LINE
8
annotation
62
1
39
211
10
45.622007
20
365.122940
11
45.622007
21
365.122940
0
LINE
8
annotation
62
1
39
211
10
45.622007
20
365.122940
11
45.599128
21
365.377420
0
LINE
8
annotation
62
1
39
211
10
45.599128
20
365.377420
11
45.533157
21
365.617190
0
LINE
8
annotation
62
1
39
211
10
45.533157
20
365.617190
11
45.428094
21
365.838184
0
LINE
8
annotation
62
1
39
211
10
45.428094
20
365.838184
11
45.287939
21
366.036335
0
LINE
8
annotation
62
1
39
211
10
45.287939
20
366.036335
11
45.116694
21
366.207578
0
LINE
8
annotation
62
1
39
211
10
45.116694
20
366.207578
11
44.918359
21
366.347845
0
LINE
8
annotation
62
1
39
211
10
44.918359
20
366.347845
11
44.696932
21
366.453070
0
LINE
8
annotation
62
1
39
211
10
44.696932
20
366.453070
11
44.456416
21
366.519187
0
LINE
8
annotation
62
1
39
211
10
44.456416
20
366.519187
11
44.200811
21
366.542130
0
LINE
8
annotation
62
1
39
211
10
44.200811
20
366.542130
11
43.489209
21
366.542130
0
LINE
8
annotation
62
1
39
211
10
43.489209
20
366.542130
11
44.200811
21
366.542130
0
LINE
8
annotation
62
1
39
211
10
44.200811
20
366.542130
11
44.200811
21
366.542130
0
LINE
8
annotation
62
1
39
211
10
44.200811
20
366.542130
11
44.456416
21
366.565078
0
LINE
8
annotation
62
1
39
211
10
44.456416
20
366.565078
11
44.696932
21
366.631234
0
LINE
8
annotation
62
1
39
211
10
44.696932
20
366.631234
11
44.918359
21
366.736564
0
LINE
8
annotation
62
1
39
211
10
44.918359
20
366.736564
11
45.116694
21
366.877035
0
LINE
8
annotation
62
1
39
211
10
45.116694
20
366.877035
11
45.287939
21
367.048613
0
LINE
8
annotation
62
1
39
211
10
45.287939
20
367.048613
11
45.428094
21
367.247265
0
LINE
8
annotation
62
1
39
211
10
45.428094
20
367.247265
11
45.533157
21
367.468959
0
LINE
8
annotation
62
1
39
211
10
45.533157
20
367.468959
11
45.599128
21
367.709659
0
LINE
8
annotation
62
1
39
211
10
45.599128
20
367.709659
11
45.622007
21
367.965333
0
LINE
8
annotation
62
1
39
211
10
45.622007
20
367.965333
11
45.622007
21
367.965333
0
LINE
8
annotation
62
1
39
211
10
45.622007
20
367.965333
11
45.599128
21
368.219813
0
LINE
8
annotation
62
1
39
211
10
45.599128
20
368.219813
11
45.533157
21
368.459583
0
LINE
8
annotation
62
1
39
211
10
45.533157
20
368.459583
11
45.428094
21
368.680577
0
LINE
8
annotation
62
1
39
211
10
45.428094
20
368.680577
11
45.287939
21
368.878728
0
LINE
8
annotation
62
1
39
211
10
45.287939
20
368.878728
11
45.116694
21
369.049971
0
LINE
8
annotation
62
1
39
211
10
45.116694
20
369.049971
11
44.918359
21
369.190238
0
LINE
8
annotation
62
1
39
211
10
44.918359
20
369.190238
11
44.696932
21
369.295463
0
LINE
8
annotation
62
1
39
211
10
44.696932
20
369.295463
11
44.456416
21
369.361580
0
LINE
8
annotation
62
1
39
211
10
44.456416
20
369.361580
11
44.200811
21
369.384523
0
LINE
8
annotation
62
1
39
211
10
44.200811
20
369.384523
11
42.779614
21
369.384523
0
LINE
8
annotation
62
1
39
211
10
49.305741
20
377.272949
11
47.652344
21
377.272949
0
LINE
8
annotation
62
1
39
211
10
47.652344
20
377.272949
11
48.312657
21
379.588713
0
LINE
8
annotation
62
1
39
211
10
48.810133
20
376.610955
11
48.810133
21
377.933449
0
LINE
8
annotation
62
1
39
211
10
40.839358
20
325.287948
11
26.296852
21
325.287948
0
LINE
8
annotation
62
1
39
211
10
26.296852
20
325.287948
11
40.839358
21
351.478913
0
LINE
8
annotation
62
1
39
211
10
40.839358
20
351.478913
11
26.296852
21
351.478913
0
LINE
8
annotation
62
1
39
211
10
64.984205
20
338.383431
11
50.663434
21
338.383431
0
LINE
8
annotation
62
1
39
211
10
80.626761
20
325.287948
11
80.626761
21
351.478913
0
LINE
8
annotation
62
1
39
211
10
80.626761
20
351.478913
11
74.804174
21
345.654684
0
LINE
8
boundary
62
5
39
2
10
21.490586
20
464.443968
11
16.754654
21
464.443968
0
LINE
8
boundary
62
5
39
2
10
16.754654
20
464.443968
11
13.959910
21
464.443968
0
LINE
8
boundary
62
5
39
2
10
13.959910
20
464.443968
11
11.787500
21
464.443968
0
LINE
8
boundary
62
5
39
2
10
11.787500
20
464.443968
11
11.787500
21
461.649218
0
LINE
8
boundary
62
5
39
2
10
11.787500
20
461.649218
11
11.787500
21
459.476802
0
LINE
8
boundary
62
5
39
2
10
11.787500
20
459.476802
11
11.787500
21
453.384160
0
LINE
8
boundary
62
5
39
2
10
11.787500
20
453.384160
11
11.787500
21
448.648228
0
LINE
8
boundary
62
5
39
2
10
11.787500
20
448.648228
11
11.787500
21
443.069261
0
LINE
8
boundary
62
5
39
2
10
11.787500
20
443.069261
11
11.787500
21
438.732618
0
LINE
8
boundary
62
5
39
2
10
11.787500
20
438.732618
11
11.787500
21
437.417880
0
LINE
8
boundary
62
5
39
2
10
11.787500
20
437.417880
11
11.787500
21
436.395907
0
LINE
8
boundary
62
5
39
2
10
11.787500
20
436.395907
11
11.787500
21
434.041221
0
LINE
8
boundary
62
5
39
2
10
11.787500
20
434.041221
11
11.787500
21
432.210875
0
LINE
8
boundary
62
5
39
2
10
11.787500
20
432.210875
11
11.787500
21
428.744185
0
LINE
8
boundary
62
5
39
2
10
11.787500
20
428.744185
11
11.787500
21
426.049451
0
LINE
8
boundary
62
5
39
2
10
11.787500
20
426.049451
11
11.787500
21
423.784267
0
LINE
8
boundary
62
5
39
2
10
11.787500
20
423.784267
11
11.787500
21
422.023499
0
LINE
8
boundary
62
5
39
2
10
11.787500
20
422.023499
11
11.787500
21
418.556809
0
LINE
8
boundary
62
5
39
2
10
11.787500
20
418.556809
11
11.787500
21
415.862081
0
LINE
8
boundary
62
5
39
2
10
11.787500
20
415.862081
11
11.787500
21
413.507394
0
LINE
8
boundary
62
5
39
2
10
11.787500
20
413.507394
11
11.787500
21
411.677043
0
LINE
8
boundary
62
5
39
2
10
11.787500
20
411.677043
11
11.787500
21
410.162817
0
LINE
8
boundary
62
5
39
2
10
11.787500
20
410.162817
11
11.787500
21
408.985784
0
LINE
8
boundary
62
5
39
2
10
11.787500
20
408.985784
11
11.787500
21
403.606305
0
LINE
8
boundary
62
5
39
2
10
11.787500
20
403.606305
11
11.787500
21
399.424728
0
LINE
8
boundary
62
5
39
2
10
11.787500
20
399.424728
11
11.787500
21
393.332086
0
LINE
8
boundary
62
5
39
2
10
11.787500
20
393.332086
11
11.787500
21
388.596154
0
LINE
8
boundary
62
5
39
2
10
11.787500
20
388.596154
11
11.787500
21
385.801404
0
LINE
8
boundary
62
5
39
2
10
11.787500
20
385.801404
11
11.787500
21
383.628988
0
LINE
8
boundary
62
5
39
2
10
11.787500
20
383.628988
11
14.582244
21
383.628988
0
LINE
8
boundary
62
5
39
2
10
14.582244
20
383.628988
11
16.754654
21
383.628988
0
LINE
8
boundary
62
5
39
2
10
16.754654
20
383.628988
11
22.847295
21
383.628988
0
LINE
8
boundary
62
5
39
2
10
22.847295
20
383.628988
11
27.583228
21
383.628988
0
LINE
8
boundary
62
5
39
2
10
27.583228
20
383.628988
11
33.162197
21
383.628988
0
LINE
8
boundary
62
5
39
2
10
33.162197
20
383.628988
11
37.498841
21
383.628988
0
LINE
8
boundary
62
5
39
2
10
37.498841
20
383.628988
11
38.813578
21
383.628988
0
LINE
8
boundary
62
5
39
2
10
38.813578
20
383.628988
11
39.835550
21
383.628988
0
LINE
8
boundary
62
5
39
2
10
39.835550
20
383.628988
11
42.190236
21
383.628988
0
LINE
8
boundary
62
5
39
2
10
42.190236
20
383.628988
11
44.020581
21
383.628988
0
LINE
8
boundary
62
5
39
2
10
44.020581
20
383.628988
11
47.494733
21
383.628988
0
LINE
8
boundary
62
5
39
2
10
47.494733
20
383.628988
11
50.195261
21
383.628988
0
LINE
8
boundary
62
5
39
2
10
50.195261
20
383.628988
11
52.254625
21
383.628988
0
LINE
8
boundary
62
5
39
2
10
52.254625
20
383.628988
11
52.251614
21
383.633142
0
LINE
8
boundary
62
5
39
2
10
52.251614
20
383.633142
11
52.251614
21
387.533142
0
LINE
8
boundary
62
5
39
2
10
52.251614
20
387.533142
11
92.470727
21
387.533142
0
LINE
8
boundary
62
5
39
2
10
92.470727
20
387.533142
11
92.615727
21
387.733142
0
LINE
8
boundary
62
5
39
2
10
92.615727
20
387.733142
11
92.615727
21
388.596154
0
LINE
8
boundary
62
5
39
2
10
92.615727
20
388.596154
11
92.615727
21
394.688796
0
LINE
8
boundary
62
5
39
2
10
92.615727
20
394.688796
11
92.615727
21
395.266958
0
LINE
8
boundary
62
5
39
2
10
92.615727
20
395.266958
11
92.470727
21
395.466958
0
LINE
8
boundary
62
5
39
2
10
92.470727
20
395.466958
11
52.251614
21
395.466958
0
LINE
8
boundary
62
5
39
2
10
52.251614
20
395.466958
11
52.251614
21
399.366958
0
LINE
8
boundary
62
5
39
2
10
52.251614
20
399.366958
11
92.470727
21
399.366958
0
LINE
8
boundary
62
5
39
2
10
92.470727
20
399.366958
11
92.615727
21
399.566958
0
LINE
8
boundary
62
5
39
2
10
92.615727
20
399.566958
11
92.615727
21
404.804207
0
LINE
8
boundary
62
5
39
2
10
92.615727
20
404.804207
11
92.615727
21
408.985784
0
LINE
8
boundary
62
5
39
2
10
92.615727
20
408.985784
11
92.615727
21
410.500003
0
LINE
8
boundary
62
5
39
2
10
92.615727
20
410.500003
11
92.615727
21
411.677035
0
LINE
8
boundary
62
5
39
2
10
92.615727
20
411.677035
11
92.615727
21
414.031730
0
LINE
8
boundary
62
5
39
2
10
92.615727
20
414.031730
11
92.615727
21
415.862081
0
LINE
8
boundary
62
5
39
2
10
92.615727
20
415.862081
11
92.615727
21
419.328771
0
LINE
8
boundary
62
5
39
2
10
92.615727
20
419.328771
11
92.615727
21
422.023499
0
LINE
8
boundary
62
5
39
2
10
92.615727
20
422.023499
11
92.615727
21
424.288676
0
LINE
8
boundary
62
5
39
2
10
92.615727
20
424.288676
11
92.615727
21
426.049444
0
LINE
8
boundary
62
5
39
2
10
92.615727
20
426.049444
11
92.615727
21
429.516142
0
LINE
8
boundary
62
5
39
2
10
92.615727
20
429.516142
11
92.615727
21
432.210876
0
LINE
8
boundary
62
5
39
2
10
92.615727
20
432.210876
11
92.615727
21
434.565562
0
LINE
8
boundary
62
5
39
2
10
92.615727
20
434.565562
11
92.615727
21
436.395907
0
LINE
8
boundary
62
5
39
2
10
92.615727
20
436.395907
11
92.615727
21
437.710645
0
LINE
8
boundary
62
5
39
2
10
92.615727
20
437.710645
11
92.615727
21
438.732618
0
LINE
8
boundary
62
5
39
2
10
92.615727
20
438.732618
11
92.615727
21
444.311585
0
LINE
8
boundary
62
5
39
2
10
92.615727
20
444.311585
11
92.615727
21
448.431928
0
LINE
8
boundary
62
5
39
2
10
92.615727
20
448.431928
11
92.470727
21
448.631928
0
LINE
8
boundary
62
5
39
2
10
92.470727
20
448.631928
11
52.251614
21
448.631928
0
LINE
8
boundary
62
5
39
2
10
52.251614
20
448.631928
11
52.251614
21
452.531928
0
LINE
8
boundary
62
5
39
2
10
52.251614
20
452.531928
11
92.470727
21
452.531928
0
LINE
8
boundary
62
5
39
2
10
92.470727
20
452.531928
11
92.615727
21
452.731928
0
LINE
8
boundary
62
5
39
2
10
92.615727
20
452.731928
11
92.615727
21
454.740870
0
LINE
8
boundary
62
5
39
2
10
92.615727
20
454.740870
11
92.615727
21
459.476802
0
LINE
8
boundary
62
5
39
2
10
92.615727
20
459.476802
11
92.615727
21
460.339814
0
LINE
8
boundary
62
5
39
2
10
92.615727
20
460.339814
11
92.470727
21
460.539814
0
LINE
8
boundary
62
5
39
2
10
92.470727
20
460.539814
11
52.251614
21
460.539814
0
LINE
8
boundary
62
5
39
2
10
52.251614
20
460.539814
11
52.251614
21
464.439814
0
LINE
8
boundary
62
5
39
2
10
52.251614
20
464.439814
11
52.254625
21
464.443968
0
LINE
8
boundary
62
5
39
2
10
52.254625
20
464.443968
11
51.950242
21
464.443968
0
LINE
8
boundary
62
5
39
2
10
51.950242
20
464.443968
11
50.195275
21
464.443968
0
LINE
8
boundary
62
5
39
2
10
50.195275
20
464.443968
11
46.721115
21
464.443968
0
LINE
8
boundary
62
5
39
2
10
46.721115
20
464.443968
11
44.020581
21
464.443968
0
LINE
8
boundary
62
5
39
2
10
44.020581
20
464.443968
11
41.665894
21
464.443968
0
LINE
8
boundary
62
5
39
2
10
41.665894
20
464.443968
11
39.835550
21
464.443968
0
LINE
8
boundary
62
5
39
2
10
39.835550
20
464.443968
11
38.520812
21
464.443968
0
LINE
8
boundary
62
5
39
2
10
38.520812
20
464.443968
11
37.498841
21
464.443968
0
LINE
8
boundary
62
5
39
2
10
37.498841
20
464.443968
11
31.919872
21
464.443968
0
LINE
8
boundary
62
5
39
2
10
31.919872
20
464.443968
11
27.583228
21
464.443968
0
LINE
8
boundary
62
5
39
2
10
27.583228
20
464.443968
11
21.490586
21
464.443968
0
LINE
8
annotation
62
1
39
211
10
47.828093
20
385.263142
11
47.828093
21
389.103142
0
LINE
8
annotation
62
1
39
211
10
47.828093
20
389.103142
11
46.974412
21
388.249220
0
LINE
8
annotation
62
1
39
211
10
45.622007
20
394.216906
11
42.779614
21
394.216906
0
LINE
8
annotation
62
1
39
211
10
42.779614
20
394.216906
11
45.406079
21
398.445176
0
LINE
8
annotation
62
1
39
211
10
45.406079
20
398.445176
11
45.406079
21
398.445176
0
LINE
8
annotation
62
1
39
211
10
45.406079
20
398.445176
11
45.409218
21
398.449061
0
LINE
8
annotation
62
1
39
211
10
45.409218
20
398.449061
11
45.412229
21
398.452980
0
LINE
8
annotation
62
1
39
211
10
45.412229
20
398.452980
11
45.415131
21
398.456964
0
LINE
8
annotation
62
1
39
211
10
45.415131
20
398.456964
11
45.417944
21
398.461047
0
LINE
8
annotation
62
1
39
211
10
45.417944
20
398.461047
11
45.420688
21
398.465263
0
LINE
8
annotation
62
1
39
211
10
45.420688
20
398.465263
11
45.423381
21
398.469644
0
LINE
8
annotation
62
1
39
211
10
45.423381
20
398.469644
11
45.426046
21
398.474223
0
LINE
8
annotation
62
1
39
211
10
45.426046
20
398.474223
11
45.428700
21
398.479033
0
LINE
8
annotation
62
1
39
211
10
45.428700
20
398.479033
11
45.431364
21
398.484107
0
LINE
8
annotation
62
1
39
211
10
45.431364
20
398.484107
11
45.431364
21
398.484107
0
LINE
8
annotation
62
1
39
211
10
45.431364
20
398.484107
11
45.539810
21
398.716950
0
LINE
8
annotation
62
1
39
211
10
45.539810
20
398.716950
11
45.603162
21
398.958313
0
LINE
8
annotation
62
1
39
211
10
45.603162
20
398.958313
11
45.622974
21
399.202740
0
LINE
8
annotation
62
1
39
211
10
45.622974
20
399.202740
11
45.600796
21
399.444780
0
LINE
8
annotation
62
1
39
211
10
45.600796
20
399.444780
11
45.538183
21
399.678977
0
LINE
8
annotation
62
1
39
211
10
45.538183
20
399.678977
11
45.436686
21
399.899878
0
LINE
8
annotation
62
1
39
211
10
45.436686
20
399.899878
11
45.297858
21
400.102030
0
LINE
8
annotation
62
1
39
211
10
45.297858
20
400.102030
11
45.123251
21
400.279978
0
LINE
8
annotation
62
1
39
211
10
45.123251
20
400.279978
11
44.914419
21
400.428269
0
LINE
8
annotation
62
1
39
211
10
44.914419
20
400.428269
11
44.914419
21
400.428269
0
LINE
8
annotation
62
1
39
211
10
44.914419
20
400.428269
11
44.680929
21
400.535174
0
LINE
8
annotation
62
1
39
211
10
44.680929
20
400.535174
11
44.439197
21
400.597550
0
LINE
8
annotation
62
1
39
211
10
44.439197
20
400.597550
11
44.194627
21
400.616802
0
LINE
8
annotation
62
1
39
211
10
44.194627
20
400.616802
11
43.952624
21
400.594332
0
LINE
8
annotation
62
1
39
211
10
43.952624
20
400.594332
11
43.718592
21
400.531545
0
LINE
8
annotation
62
1
39
211
10
43.718592
20
400.531545
11
43.497935
21
400.429845
0
LINE
8
annotation
62
1
39
211
10
43.497935
20
400.429845
11
43.296057
21
400.290635
0
LINE
8
annotation
62
1
39
211
10
43.296057
20
400.290635
11
43.118364
21
400.115320
0
LINE
8
annotation
62
1
39
211
10
43.118364
20
400.115320
11
42.970258
21
399.905304
0
LINE
8
annotation
62
1
39
211
10
42.970258
20
399.905304
11
42.783628
21
399.547296
0
LINE
8
annotation
62
1
39
211
10
42.779614
20
447.382129
11
44.200811
21
447.382129
0
LINE
8
annotation
62
1
39
211
10
44.200811
20
447.382129
11
44.200811
21
447.382129
0
LINE
8
annotation
62
1
39
211
10
44.200811
20
447.382129
11
44.456416
21
447.405058
0
LINE
8
annotation
62
1
39
211
10
44.456416
20
447.405058
11
44.696932
21
447.471143
0
LINE
8
annotation
62
1
39
211
10
44.696932
20
447.471143
11
44.918359
21
447.576325
0
LINE
8
annotation
62
1
39
211
10
44.918359
20
447.576325
11
45.116694
21
447.716549
0
LINE
8
annotation
62
1
39
211
10
45.116694
20
447.716549
11
45.287939
21
447.887759
0
LINE
8
annotation
62
1
39
211
10
45.287939
20
447.887759
11
45.428094
21
448.085897
0
LINE
8
annotation
62
1
39
211
10
45.428094
20
448.085897
11
45.533157
21
448.306907
0
LINE
8
annotation
62
1
39
211
10
45.533157
20
448.306907
11
45.599128
21
448.546733
0
LINE
8
annotation
62
1
39
211
10
45.599128
20
448.546733
11
45.622007
21
448.801319
0
LINE
8
annotation
62
1
39
211
10
45.622007
20
448.801319
11
45.622007
21
449.512920
0
LINE
8
annotation
62
1
39
211
10
45.622007
20
449.512920
11
45.622007
21
449.512920
0
LINE
8
annotation
62
1
39
211
10
45.622007
20
449.512920
11
45.599128
21
449.767400
0
LINE
8
annotation
62
1
39
211
10
45.599128
20
449.767400
11
45.533157
21
450.007170
0
LINE
8
annotation
62
1
39
211
10
45.533157
20
450.007170
11
45.428094
21
450.228164
0
LINE
8
annotation
62
1
39
211
10
45.428094
20
450.228164
11
45.287939
21
450.426315
0
LINE
8
annotation
62
1
39
211
10
45.287939
20
450.426315
11
45.116694
21
450.597558
0
LINE
8
annotation
62
1
39
211
10
45.116694
20
450.597558
11
44.918359
21
450.737825
0
LINE
8
annotation
62
1
39
211
10
44.918359
20
450.737825
11
44.696932
21
450.843050
0
LINE
8
annotation
62
1
39
211
10
44.696932
20
450.843050
11
44.456416
21
450.909167
0
LINE
8
annotation
62
1
39
211
10
44.456416
20
450.909167
11
44.200811
21
450.932110
0
LINE
8
annotation
62
1
39
211
10
44.200811
20
450.932110
11
43.489209
21
450.932110
0
LINE
8
annotation
62
1
39
211
10
43.489209
20
450.932110
11
44.200811
21
450.932110
0
LINE
8
annotation
62
1
39
211
10
44.200811
20
450.932110
11
44.200811
21
450.932110
0
LINE
8
annotation
62
1
39
211
10
44.200811
20
450.932110
11
44.456416
21
450.955058
0
LINE
8
annotation
62
1
39
211
10
44.456416
20
450.955058
11
44.696932
21
451.021214
0
LINE
8
annotation
62
1
39
211
10
44.696932
20
451.021214
11
44.918359
21
451.126544
0
LINE
8
annotation
62
1
39
211
10
44.918359
20
451.126544
11
45.116694
21
451.267015
0
LINE
8
annotation
62
1
39
211
10
45.116694
20
451.267015
11
45.287939
21
451.438593
0
LINE
8
annotation
62
1
39
211
10
45.287939
20
451.438593
11
45.428094
21
451.637246
0
LINE
8
annotation
62
1
39
211
10
45.428094
20
451.637246
11
45.533157
21
451.858939
0
LINE
8
annotation
62
1
39
211
10
45.533157
20
451.858939
11
45.599128
21
452.099639
0
LINE
8
annotation
62
1
39
211
10
45.599128
20
452.099639
11
45.622007
21
452.355313
0
LINE
8
annotation
62
1
39
211
10
45.622007
20
452.355313
11
45.622007
21
452.355313
0
LINE
8
annotation
62
1
39
211
10
45.622007
20
452.355313
11
45.599128
21
452.609793
0
LINE
8
annotation
62
1
39
211
10
45.599128
20
452.609793
11
45.533157
21
452.849563
0
LINE
8
annotation
62
1
39
211
10
45.533157
20
452.849563
11
45.428094
21
453.070557
0
LINE
8
annotation
62
1
39
211
10
45.428094
20
453.070557
11
45.287939
21
453.268708
0
LINE
8
annotation
62
1
39
211
10
45.287939
20
453.268708
11
45.116694
21
453.439951
0
LINE
8
annotation
62
1
39
211
10
45.116694
20
453.439951
11
44.918359
21
453.580218
0
LINE
8
annotation
62
1
39
211
10
44.918359
20
453.580218
11
44.696932
21
453.685443
0
LINE
8
annotation
62
1
39
211
10
44.696932
20
453.685443
11
44.456416
21
453.751561
0
LINE
8
annotation
62
1
39
211
10
44.456416
20
453.751561
11
44.200811
21
453.774503
0
LINE
8
annotation
62
1
39
211
10
44.200811
20
453.774503
11
42.779614
21
453.774503
0
LINE
8
annotation
62
1
39
211
10
49.305741
20
461.662929
11
47.652344
21
461.662929
0
LINE
8
annotation
62
1
39
211
10
47.652344
20
461.662929
11
48.312657
21
463.978693
0
LINE
8
annotation
62
1
39
211
10
48.810133
20
461.000935
11
48.810133
21
462.323429
0
LINE
8
annotation
62
1
39
211
10
39.658438
20
411.132982
11
26.731766
21
411.132982
0
LINE
8
annotation
62
1
39
211
10
26.731766
20
411.132982
11
39.658438
21
434.413839
0
LINE
8
annotation
62
1
39
211
10
39.658438
20
434.413839
11
26.731766
21
434.413839
0
LINE
8
annotation
62
1
39
211
10
61.120524
20
422.773411
11
48.390950
21
422.773411
0
LINE
8
annotation
62
1
39
211
10
80.189998
20
411.132793
11
69.850413
21
411.132793
0
LINE
8
annotation
62
1
39
211
10
69.850413
20
411.132793
11
79.404529
21
426.513693
0
LINE
8
annotation
62
1
39
211
10
79.404529
20
426.513693
11
79.404529
21
426.513693
0
LINE
8
annotation
62
1
39
211
10
79.404529
20
426.513693
11
79.415950
21
426.527826
0
LINE
8
annotation
62
1
39
211
10
79.415950
20
426.527826
11
79.426903
21
426.542079
0
LINE
8
annotation
62
1
39
211
10
79.426903
20
426.542079
11
79.437459
21
426.556573
0
LINE
8
annotation
62
1
39
211
10
79.437459
20
426.556573
11
79.447691
21
426.571427
0
LINE
8
annotation
62
1
39
211
10
79.447691
20
426.571427
11
79.457671
21
426.586762
0
LINE
8
annotation
62
1
39
211
10
79.457671
20
426.586762
11
79.467470
21
426.602698
0
LINE
8
annotation
62
1
39
211
10
79.467470
20
426.602698
11
79.477161
21
426.619354
0
LINE
8
annotation
62
1
39
211
10
79.477161
20
426.619354
11
79.486816
21
426.636852
0
LINE
8
annotation
62
1
39
211
10
79.486816
20
426.636852
11
79.496507
21
426.655311
0
LINE
8
annotation
62
1
39
211
10
79.496507
20
426.655311
11
79.496507
21
426.655311
0
LINE
8
annotation
62
1
39
211
10
79.496507
20
426.655311
11
79.890995
21
427.502308
0
LINE
8
annotation
62
1
39
211
10
79.890995
20
427.502308
11
80.121447
21
428.380296
0
LINE
8
annotation
62
1
39
211
10
80.121447
20
428.380296
11
80.193513
21
429.269434
0
LINE
8
annotation
62
1
39
211
10
80.193513
20
429.269434
11
80.112840
21
430.149885
0
LINE
8
annotation
62
1
39
211
10
80.112840
20
430.149885
11
79.885075
21
431.001809
0
LINE
8
annotation
62
1
39
211
10
79.885075
20
431.001809
11
79.515866
21
431.805367
0
LINE
8
annotation
62
1
39
211
10
79.515866
20
431.805367
11
79.010861
21
432.540721
0
LINE
8
annotation
62
1
39
211
10
79.010861
20
432.540721
11
78.375707
21
433.188031
0
LINE
8
annotation
62
1
39
211
10
78.375707
20
433.188031
11
77.616052
21
433.727459
0
LINE
8
annotation
62
1
39
211
10
77.616052
20
433.727459
11
77.616052
21
433.727459
0
LINE
8
annotation
62
1
39
211
10
77.616052
20
433.727459
11
76.766699
21
434.116341
0
LINE
8
annotation
62
1
39
211
10
76.766699
20
434.116341
11
75.887366
21
434.343243
0
LINE
8
annotation
62
1
39
211
10
75.887366
20
434.343243
11
74.997711
21
434.413272
0
LINE
8
annotation
62
1
39
211
10
74.997711
20
434.413272
11
74.117393
21
434.331535
0
LINE
8
annotation
62
1
39
211
10
74.117393
20
434.331535
11
73.266070
21
434.103139
0
LINE
8
annotation
62
1
39
211
10
73.266070
20
434.103139
11
72.463400
21
433.733191
0
LINE
8
annotation
62
1
39
211
10
72.463400
20
433.733191
11
71.729044
21
433.226798
0
LINE
8
annotation
62
1
39
211
10
71.729044
20
433.226798
11
71.082659
21
432.589066
0
LINE
8
annotation
62
1
39
211
10
71.082659
20
432.589066
11
70.543904
21
431.825104
0
LINE
8
annotation
62
1
39
211
10
70.543904
20
431.825104
11
69.865013
21
430.522801
0
LINE
8
frame
62
5
39
2
10
0.000000
20
0.000000
11
305.000000
21
0.000000
0
LINE
8
frame
62
5
39
2
10
305.000000
20
0.000000
11
305.000000
21
610.000000
0
LINE
8
frame
62
5
39
2
10
305.000000
20
610.000000
11
0.000000
21
610.000000
0
LINE
8
frame
62
5
39
2
10
0.000000
20
610.000000
11
0.000000
21
0.000000
0
ENDSEC
0
EOF
